<?xml version="1.0" encoding="iso-8859-1"?>
<!-- Generator: Adobe Illustrator 19.0.0, SVG Export Plug-In . SVG Version: 6.00 Build 0)  -->
<svg version="1.1" id="Capa_1" xmlns="http://www.w3.org/2000/svg" xmlns:xlink="http://www.w3.org/1999/xlink" x="0px" y="0px"
	 viewBox="0 0 512.001 512.001" style="enable-background:new 0 0 512.001 512.001;" xml:space="preserve">
<path style="fill:#FFCD38;" d="M126.584,314.746c0,0-147.09,31.767-114.323,185.007l-0.01-0.01
	C165.49,532.51,197.257,385.42,197.257,385.42l6.046-75.599L126.584,314.746z"/>
<path style="fill:#DA5B65;" d="M140.25,328.412c0,0-77.747,37.935-66.283,109.636c71.7,11.464,109.636-66.283,109.636-66.283
	l-0.056-43.297L140.25,328.412z"/>
<g>
	<path style="fill:#EFEDEE;" d="M256.045,52.57c0-20.269-16.431-36.701-36.701-36.701c-9.434,0-18.035,3.563-24.536,9.413
		c-9.071-9.552-21.883-15.518-36.096-15.518c-27.31,0-49.474,21.991-49.773,49.231c-5.901-4.05-13.042-6.424-20.74-6.424
		c-20.269,0-36.701,16.431-36.701,36.701c0,20.269,16.432,36.701,36.701,36.701h167.809V54.1
		C256.027,53.592,256.045,53.083,256.045,52.57z"/>
	<path style="fill:#EFEDEE;" d="M463.902,333.746c-3.109,0-6.129,0.377-9.025,1.071c0.694-2.896,1.071-5.916,1.071-9.025
		c0-21.332-17.293-38.624-38.625-38.624c-10.184,0-19.441,3.948-26.341,10.388l-127.574,50.31v63.132h200.495
		c21.332,0,38.624-17.293,38.624-38.624C502.528,351.039,485.235,333.746,463.902,333.746z"/>
</g>
<path style="fill:#DA5B65;" d="M502.722,36.572c-1.477-14.42-12.87-25.813-27.29-27.29C440.325,5.704,371.208,4.477,300.85,36.124
	l67.682,107.349l107.349,67.682C507.526,140.795,506.299,71.678,502.722,36.572z"/>
<path style="fill:#C0344A;" d="M502.722,36.572c-1.477-14.42-12.87-25.813-27.29-27.29c-0.8-0.082-1.637-0.16-2.471-0.239
	c3.376,35.804,3.844,103.355-27.08,172.11l-88.949-56.081l11.601,18.399l107.349,67.681
	C507.526,140.795,506.299,71.677,502.722,36.572z"/>
<g>
	<path style="fill:#DA5B65;" d="M148.037,214.848l-80.012,3.865c-1.115,0.066-2.091,0.769-2.507,1.806l-28.882,71.987
		c-1.169,2.913,2.498,5.334,4.718,3.115l37.012-37.012c0.738-0.738,1.818-1.02,2.823-0.737l52.215,14.717L148.037,214.848z"/>
	<path style="fill:#DA5B65;" d="M297.156,363.966l-3.865,80.012c-0.066,1.115-0.769,2.091-1.806,2.507l-71.987,28.882
		c-2.913,1.169-5.334-2.498-3.115-4.718l37.012-37.012c0.738-0.738,1.02-1.818,0.737-2.823L239.415,378.6L297.156,363.966z"/>
</g>
<path style="fill:#D4D2D3;" d="M475.88,211.154L300.85,36.124c-72.406,32.562-146.111,99.945-185.369,235.43
	c-4.446,15.343-0.192,31.897,11.103,43.193l70.674,70.674c11.296,11.296,27.849,15.549,43.193,11.103
	C375.934,357.264,443.317,283.56,475.88,211.154z"/>
<path style="fill:#BAB8B9;" d="M445.879,181.154c-32.562,72.405-99.945,146.111-235.43,185.369
	c-15.343,4.446-31.897,0.192-43.193-11.103l30,30c11.296,11.296,27.849,15.549,43.193,11.103
	c135.485-39.259,202.867-112.964,235.43-185.37L445.879,181.154z"/>
<circle style="fill:#DA5B65;" cx="284.055" cy="227.954" r="86.221"/>
<circle style="fill:#51D7F7;" cx="284.055" cy="227.954" r="58.631"/>
<path d="M217.768,161.677c-17.701,17.701-27.45,41.236-27.45,66.271s9.749,48.569,27.45,66.271
	c18.271,18.271,42.27,27.406,66.271,27.406c24,0,48-9.135,66.271-27.406c12.877-12.877,21.664-29.09,25.411-46.886
	c0.854-4.053-1.74-8.031-5.793-8.884c-4.057-0.853-8.031,1.741-8.884,5.794c-3.146,14.94-10.525,28.554-21.339,39.369
	c-30.692,30.692-80.635,30.692-111.327,0c-14.868-14.868-23.056-34.636-23.056-55.664s8.188-40.795,23.056-55.664
	c14.868-14.868,34.636-23.056,55.664-23.056c21.027,0,40.795,8.188,55.664,23.056c12.173,12.173,19.875,27.597,22.274,44.604
	c0.578,4.102,4.376,6.958,8.474,6.379c4.102-0.579,6.958-4.373,6.379-8.475c-2.857-20.254-12.027-38.62-26.521-53.115
	c-17.701-17.702-41.236-27.45-66.271-27.45C259.005,134.228,235.47,143.975,217.768,161.677z"/>
<path d="M284.038,161.82c-17.664,0-34.27,6.878-46.76,19.368c-25.783,25.783-25.783,67.736,0,93.519
	c12.49,12.49,29.096,19.368,46.76,19.368c17.663,0,34.269-6.878,46.76-19.368c25.783-25.783,25.783-67.736,0-93.519
	C318.308,168.698,301.702,161.82,284.038,161.82z M320.191,264.1c-9.657,9.656-22.496,14.975-36.152,14.975
	c-13.657,0-26.496-5.318-36.153-14.975c-19.934-19.935-19.934-52.371,0-72.306c9.657-9.657,22.496-14.975,36.153-14.975
	c13.656,0,26.496,5.318,36.152,14.975C340.125,211.73,340.125,244.166,320.191,264.1z"/>
<path d="M271.712,193.873c-2.928-2.929-7.677-2.929-10.606,0l-4.199,4.199c-2.929,2.929-2.929,7.678,0,10.607
	c1.464,1.464,3.384,2.197,5.303,2.197s3.839-0.732,5.303-2.196l4.199-4.199C274.64,201.552,274.641,196.802,271.712,193.873z"/>
<path d="M307.506,240.274l-4.199,4.199c-2.929,2.929-2.929,7.677,0,10.606c1.464,1.465,3.384,2.197,5.303,2.197
	s3.839-0.732,5.303-2.197l4.199-4.199c2.929-2.929,2.929-7.677,0-10.606C315.184,237.345,310.435,237.345,307.506,240.274z"/>
<path d="M291.952,226.118c-1.551,0.102-3.131-0.532-4.342-1.743c-1.212-1.212-1.847-2.795-1.743-4.343
	c0.277-4.133-2.849-7.708-6.981-7.985c-4.125-0.278-7.708,2.848-7.985,6.981c-0.394,5.866,1.831,11.681,6.103,15.953
	c3.948,3.948,9.213,6.147,14.62,6.147c0.444,0,0.889-0.015,1.333-0.045c4.133-0.278,7.258-3.853,6.98-7.986
	C299.661,228.966,296.081,225.838,291.952,226.118z"/>
<path d="M4.875,501.136c0.66,3.011,3.028,5.475,6.103,6.001c15.173,3.224,29.894,4.863,43.778,4.864
	c63.533,0,100.957-34.102,121.161-62.711c13.928-19.722,21.673-39.297,25.505-51.108c8.08,4.95,17.368,7.572,26.816,7.572
	c3.565,0,7.153-0.373,10.706-1.131l7.222,25.621l-35.1,35.099c-2.982,2.982-3.872,7.412-2.267,11.287
	c2.157,5.207,8.245,7.794,13.478,5.695l71.985-28.882c3.715-1.49,6.267-5.034,6.506-9.107l1.249-25.844h161.87
	c25.433,0,46.125-20.691,46.125-46.126s-20.691-46.125-46.125-46.125c-0.152,0-0.304,0.001-0.457,0.002
	c0.001-0.152,0.002-0.304,0.002-0.456c0-17.422-10.018-33.184-24.991-40.974c17.943-21.414,32.763-45.018,44.266-70.593
	c32.377-71.989,31.102-142.682,27.459-178.418c-1.829-17.864-16.123-32.158-33.99-33.987C440.44-1.825,369.743-3.099,297.757,29.28
	c-11.947,5.373-23.451,11.492-34.519,18.292c-2.49-22.028-21.227-39.207-43.911-39.207c-8.597,0-16.923,2.49-24.04,7.109
	c-10.254-8.565-23.02-13.214-36.593-13.214c-27.332,0-50.42,19.458-55.995,45.249c-4.63-1.611-9.523-2.441-14.518-2.441
	c-24.373,0-44.202,19.828-44.202,44.202S63.808,133.47,88.18,133.47h83.77c-15.945,22.271-29.912,47.235-41.81,74.73l-62.576,3.023
	c-3.992,0.236-7.534,2.787-9.024,6.5L29.656,289.71c-1.289,3.212-0.916,6.82,0.999,9.652c3.637,5.38,11.394,6.149,15.983,1.559
	l35.1-35.1l25.623,7.222c-2.767,12.964-0.39,26.393,6.426,37.521c-13.896,4.507-38.521,14.425-61.457,33.442
	c-31.367,26.01-65.042,74.353-47.491,156.982C4.853,501.038,4.864,501.087,4.875,501.136z M237.613,460.01l21.071-21.071
	c2.654-2.654,3.67-6.547,2.652-10.161l-7.981-28.315c11.839-3.689,23.559-7.777,35.107-12.295l-2.534,52.458L237.613,460.01z
	 M428.08,296.592c12.006,4.45,20.353,16.131,20.353,29.198c0,2.435-0.291,4.883-0.865,7.276c-1.282,5.347,3.696,10.321,9.04,9.042
	c2.396-0.574,4.845-0.865,7.279-0.865c17.162,0,31.124,13.962,31.124,31.124c0,17.162-13.962,31.125-31.124,31.125H302.741
	l1.045-21.628c0.999-0.432,1.974-0.885,2.966-1.322C352.037,360.578,394.278,332.983,428.08,296.592z M474.653,16.739
	c10.824,1.108,19.484,9.769,20.592,20.589c3.319,32.565,4.597,95.417-21.914,160.681c0,0-106.777-106.776-106.965-106.964
	c-3.085-3.085-8.376-2.804-11.121,0.569c-2.401,2.95-2.175,7.347,0.515,10.037l111.109,111.109
	c-12.054,25.612-27.505,48.891-46.248,69.823c-0.17,0.157-0.342,0.31-0.498,0.484c-47.937,53.167-113.776,86.544-181.775,106.248
	c-12.719,3.686-26.438,0.16-35.802-9.203l-70.674-70.674c-9.362-9.363-12.889-23.081-9.203-35.802
	c19.723-68.073,52.908-133.667,106.184-181.583c21.038-18.921,44.762-34.883,70.373-46.938c0,0,35.271,35.271,35.321,35.321
	c2.815,2.815,7.679,2.927,10.607,0c2.929-2.929,2.929-7.677,0-10.606l-31.178-31.175C379.237,12.144,442.09,13.422,474.653,16.739z
	 M183.308,118.469H88.183c-16.102,0-29.201-13.1-29.201-29.201s13.1-29.201,29.201-29.201c5.922,0,11.626,1.766,16.494,5.107
	c4.876,3.346,11.68-0.208,11.745-6.1c0.254-23.056,19.217-41.813,42.273-41.813c11.697,0,22.584,4.682,30.657,13.183
	c2.798,2.947,7.434,3.128,10.455,0.411c5.367-4.829,12.3-7.488,19.521-7.488c16.101,0,29.2,13.099,29.2,29.201
	c0,1.542-0.038,3.086-0.038,4.629c-0.787,0.549-1.569,1.106-2.345,1.668c-23.66,16.809-44.492,37.115-62.815,59.577
	C183.324,118.45,183.316,118.46,183.308,118.469z M80.391,250.266c-2.715,0.008-5.384,1.079-7.344,3.036l-21.071,21.071
	l19.385-48.316l52.458-2.534c-0.162,0.413-0.316,0.837-0.476,1.251c-4.313,11.131-8.267,22.457-11.819,33.855
	C111.522,258.63,81.334,250.263,80.391,250.266z M61.5,355.894c24.895-20.795,52.76-29.995,62.794-32.817l3.67,3.67
	c-7.731,4.776-19.361,12.904-30.537,24.354c-25.279,25.901-35.958,56.376-30.881,88.128c0.512,3.2,3.021,5.71,6.222,6.222
	c19.876,3.177,40.126-0.017,58.1-9.071c3.699-1.864,5.187-6.373,3.324-10.072c-1.864-3.699-6.372-5.188-10.073-3.324
	c-13.805,6.955-28.401,9.754-43.463,8.354c-2.359-25.039,6.776-48.378,27.206-69.451c11.802-12.172,24.444-20.35,31.045-24.199
	l35.406,35.406c-4.189,7.197-13.529,21.574-27.713,34.31c-3.082,2.767-3.337,7.509-0.57,10.591c2.768,3.083,7.51,3.337,10.591,0.57
	c13.72-12.319,23.279-25.873,28.629-34.534l3.666,3.666c-2.434,8.715-9.664,30.865-25.252,52.939
	c-26.413,37.4-63.055,56.365-108.924,56.365c-11.453-0.001-23.587-1.218-36.134-3.622C7.437,435.246,21.855,389.009,61.5,355.894z"
	/>
<g>
</g>
<g>
</g>
<g>
</g>
<g>
</g>
<g>
</g>
<g>
</g>
<g>
</g>
<g>
</g>
<g>
</g>
<g>
</g>
<g>
</g>
<g>
</g>
<g>
</g>
<g>
</g>
<g>
</g>
</svg>
