<?xml version="1.0" encoding="utf-8"?>
<!-- Generator: Adobe Illustrator 25.1.0, SVG Export Plug-In . SVG Version: 6.00 Build 0)  -->
<svg version="1.1" id="Capa_1" xmlns="http://www.w3.org/2000/svg" xmlns:xlink="http://www.w3.org/1999/xlink" x="0px" y="0px"
	 viewBox="0 0 313.8 141.9" style="enable-background:new 0 0 313.8 141.9;" xml:space="preserve">
<style type="text/css">
	.st0{fill:#FFDAA4;}
	.st1{fill:#7A7A7A;}
	.st2{fill:#C6C6C6;}
	.st3{fill:#FF0000;}
	.st4{fill:#2D2D2D;}
	.st5{fill:#595959;}
	.st6{opacity:0.25;}
	.st7{fill:#606060;}
	.st8{fill:#191919;}
	.st9{fill:#3A3A3A;}
	.st10{fill:#FF2103;}
	.st11{fill:#C43F3F;}
	.st12{fill:#FF4040;}
	.st13{fill:#9B9B9B;}
	.st14{fill:#D1D1D1;}
	.st15{opacity:0.35;}
	.st16{fill:#111111;}
	.st17{opacity:0.15;}
	.st18{fill:#FFFFFF;}
	.st19{fill:#5757D3;}
	.st20{fill:url(#SVGID_1_);}
	.st21{opacity:0.22;}
	.st22{fill:#EFEFEF;}
	.st23{fill:#B2B2B2;}
	.st24{fill:url(#SVGID_2_);}
	.st25{fill:url(#SVGID_3_);}
	.st26{fill:#1D1D1B;}
</style>
<g>
	<g id="Capa_2_1_">
		<g id="Capa_1-2">
			<path class="st0" d="M212.9,25L212.9,25c0.3-0.7,1-1,1.7-0.7l6.1,2.5c0.6,0.3,1,1,0.7,1.7c0,0,0,0,0,0l0,0c-0.3,0.6-1,1-1.7,0.7
				c0,0,0,0,0,0l-6.1-2.5C212.9,26.4,212.6,25.7,212.9,25z"/>
			<path class="st0" d="M212.9,116.8L212.9,116.8c0.3,0.6,1,0.9,1.7,0.7l6.1-2.5c0.6-0.3,1-1,0.7-1.7c0,0,0,0,0,0l0,0
				c-0.3-0.6-1-1-1.7-0.7l-6.1,2.5C212.9,115.4,212.6,116.1,212.9,116.8z"/>
			<path d="M107,46.2v49.4c0,1.7-1.4,3-3,3H29.7c-1.7,0-3-1.4-3-3V46.2c0-1.7,1.4-3,3-3H104C105.6,43.2,107,44.5,107,46.2z"/>
			<path class="st1" d="M46,39.2L46,39.2c0-4,3.3-7.3,7.3-7.3h66.3c4,0,7.3,3.2,7.3,7.3c0,0,0,0,0,0l0,0c0,4-3.3,7.3-7.3,7.3H53.3
				C49.3,46.5,46,43.2,46,39.2L46,39.2z"/>
			<path class="st2" d="M55.8,46.5v-16c0-1.1,0.9-1.9,1.9-1.9l0,0c1.1,0,1.9,0.9,1.9,1.9v16H55.8z"/>
			<path class="st3" d="M241.6,56.5L241.6,56.5c0-1.4,1.2-2.6,2.6-2.6l0,0h29.7c1.4,0,2.6,1.2,2.6,2.6c0,0,0,0,0,0l0,0
				c0,1.4-1.2,2.5-2.6,2.5h-29.7C242.7,59,241.6,57.9,241.6,56.5z"/>
			<path class="st3" d="M276.4,84v2.8c0,0.7-0.5,1.2-1.2,1.2h-32.5c-0.7,0-1.2-0.5-1.2-1.2V84c0-0.7,0.5-1.2,1.2-1.2h32.5
				C275.9,82.8,276.4,83.4,276.4,84z"/>
			<path class="st4" d="M243.9,56.5L243.9,56.5c0-1.4,1.2-2.6,2.6-2.6l0,0h12.3c1.4,0,2.6,1.2,2.6,2.6c0,0,0,0,0,0l0,0
				c0,1.4-1.2,2.5-2.6,2.5h-12.3C245.1,59,243.9,57.9,243.9,56.5z"/>
			<path class="st4" d="M261.4,84v2.8c0,0.7-0.5,1.2-1.2,1.2h-15c-0.7,0-1.2-0.5-1.2-1.2V84c0-0.7,0.5-1.2,1.2-1.2h15
				C260.8,82.8,261.4,83.4,261.4,84z"/>
			<path class="st5" d="M241.6,70.9L241.6,70.9c0-6.6,5.3-11.9,11.8-11.9c0,0,0,0,0,0h48.4c6.6,0,11.9,5.3,11.9,11.9c0,0,0,0,0,0
				l0,0c0,6.6-5.3,11.9-11.9,11.9h-48.4C246.9,82.8,241.6,77.5,241.6,70.9C241.6,70.9,241.6,70.9,241.6,70.9z"/>
			<g class="st6">
				<path class="st7" d="M215.5,70.9L215.5,70.9c0-6.6,5.3-11.9,11.8-11.9c0,0,0,0,0,0h48.4c6.6,0,11.9,5.3,11.9,11.9c0,0,0,0,0,0
					l0,0c0,6.6-5.3,11.9-11.8,11.9c0,0,0,0-0.1,0h-48.4C220.8,82.8,215.5,77.5,215.5,70.9C215.5,70.9,215.5,70.9,215.5,70.9z"/>
			</g>
			<path class="st8" d="M270.3,82.8h-26.6c-6.6,0-11.9-5.3-11.9-11.9S237.2,59,243.8,59c0,0,0,0,0,0h26.6c6.6,0,11.9,5.3,11.9,11.9
				S276.9,82.8,270.3,82.8C270.3,82.8,270.3,82.8,270.3,82.8z"/>
			<path class="st4" d="M268.6,81.1H242c-2.7,0-5.4-0.9-7.5-2.6c-4.2-5.1-3.4-12.6,1.7-16.7c2.1-1.7,4.8-2.7,7.5-2.7h26.6
				c2.7,0,5.4,0.9,7.5,2.7c4.1,5.1,3.3,12.6-1.8,16.7C274,80.1,271.3,81,268.6,81.1L268.6,81.1z"/>
			<path class="st9" d="M234.7,108.5c0-0.3,0.2-0.6,0.4-0.7c0.1,0,10.8-5.2,13-11.6c2-6,1.1-11.3,0.3-16c-0.6-3.3-1.1-6.2-0.4-8.6
				c4.4-15.8,4.8-26.7,1.4-31.5c-5.9-8.2-12.1-5.6-12.1-5.6c-0.4,0.1-0.8,0-1-0.4c-0.2-0.4,0-0.8,0.4-1c0.1,0,7.4-3.1,14,6.1
				c3.8,5.3,3.4,16.4-1.2,32.8c-0.6,2.1-0.1,4.8,0.5,7.9c0.8,4.6,1.9,10.4-0.3,16.7c-2.4,7-13.3,12.2-13.8,12.5
				c-0.4,0.2-0.8,0-1-0.4C234.8,108.7,234.7,108.6,234.7,108.5z"/>
			<path class="st3" d="M231.3,18.2c0-0.7,0.3-1.3,0.8-1.8c1-0.9,2.4-0.8,3.3,0.2c0,0,0,0,0,0l6.6,7.4c0.7,0.8,0.8,1.9,0.2,2.8
				l-4.7,7.3c-0.7,1.1-2.2,1.4-3.3,0.7c-1.1-0.7-1.4-2.2-0.7-3.2l0,0l3.7-5.8l-5.4-6.1C231.5,19.4,231.3,18.8,231.3,18.2z"/>
			<path class="st3" d="M231.3,123.6c0-0.6,0.2-1.1,0.6-1.6l5.4-6.1l-3.7-5.8c-0.7-1.1-0.4-2.6,0.7-3.3s2.6-0.4,3.3,0.7l4.7,7.3
				c0.6,0.9,0.5,2-0.2,2.8l-6.6,7.4c-0.9,1-2.3,1.1-3.3,0.2C231.6,124.9,231.3,124.3,231.3,123.6L231.3,123.6z"/>
			<polygon points="35.5,45.9 29.3,35 33.6,32.5 39.8,43.3 			"/>
			<path class="st10" d="M37,32.3V35c0,0.6-0.5,1.2-1.2,1.2h-8c-0.6,0-1.2-0.5-1.2-1.2v-2.7c0-0.6,0.5-1.2,1.2-1.2h8
				C36.5,31.1,37,31.6,37,32.3z"/>
			<path d="M38.5,32.3V35c0,0.6-0.5,1.2-1.2,1.2h-8c-0.6,0-1.2-0.5-1.2-1.2v-2.7c0-0.6,0.5-1.2,1.2-1.2h8
				C37.9,31.1,38.5,31.6,38.5,32.3z"/>
			<polygon points="35.5,96 29.3,106.8 33.6,109.3 39.8,98.5 			"/>
			<path class="st10" d="M26.7,109.6v-2.7c0-0.6,0.5-1.2,1.2-1.2h8c0.6,0,1.2,0.5,1.2,1.2v2.7c0,0.6-0.5,1.2-1.2,1.2h-8
				C27.2,110.7,26.7,110.2,26.7,109.6z"/>
			<path d="M28.2,109.6v-2.7c0-0.6,0.5-1.2,1.2-1.2h8c0.6,0,1.2,0.5,1.2,1.2v2.7c0,0.6-0.5,1.2-1.2,1.2h-8
				C28.7,110.7,28.2,110.2,28.2,109.6z"/>
			<path class="st5" d="M0,70.9L0,70.9c0-13.5,10.9-24.4,24.4-24.4l0,0h147.9c13.5,0,24.4,10.9,24.4,24.4l0,0l0,0
				c0,13.5-10.9,24.4-24.4,24.4l0,0H24.4C10.9,95.3,0,84.4,0,70.9z"/>
			<g class="st6">
				<path class="st7" d="M11,70.9L11,70.9c0-13.5,10.9-24.4,24.4-24.4h147.9c13.5,0,24.4,10.9,24.4,24.4l0,0l0,0
					c0,13.5-10.9,24.4-24.4,24.4l0,0H35.4C21.9,95.3,11,84.4,11,70.9z"/>
			</g>
			<path class="st4" d="M17.3,70.9L17.3,70.9c0-13.5,10.9-24.4,24.4-24.4l0,0h140.7c13.5,0,24.4,10.9,24.4,24.4l0,0l0,0
				c0,13.5-10.9,24.4-24.4,24.4l0,0H41.7C28.2,95.3,17.3,84.4,17.3,70.9z"/>
			<path class="st11" d="M40.3,70.9L40.3,70.9c0-14.1,11.4-25.5,25.5-25.5h29.4c7.8,0,14.1,6.3,14.1,14.1v22.8
				c0,7.8-6.3,14.1-14.1,14.1H65.9C51.8,96.5,40.3,85,40.3,70.9L40.3,70.9z"/>
			<path class="st12" d="M52.5,70.9L52.5,70.9c0-14.1,11.4-25.5,25.5-25.5h26.3c7.8,0,14.1,6.3,14.1,14.1v22.8
				c0,7.8-6.3,14.1-14.1,14.1H78C63.9,96.5,52.5,85,52.5,70.9z"/>
			<path class="st8" d="M208.4,98.3h-81.1C112.3,98.3,100,86.1,100,71c0,0,0,0,0,0c0-1,0-1.9,0.2-2.9c1.5-13.9,13.2-24.5,27.2-24.5
				h81.1c14,0,25.7,10.5,27.2,24.5c0.1,1,0.2,1.9,0.2,2.9C235.8,86,223.6,98.3,208.4,98.3L208.4,98.3z"/>
			<path class="st4" d="M208.4,92.5h-81.1c-14,0-25.7-10.5-27.2-24.5c1.5-13.9,13.2-24.5,27.2-24.5h81.1c14,0,25.7,10.6,27.2,24.5
				C234.2,81.9,222.4,92.4,208.4,92.5L208.4,92.5z"/>
			<path d="M207.9,120.7c0-1.3,1.1-2.3,2.4-2.3l0,0c18,0,32.1-21.3,32.6-47.4c0.4-25.3-14.3-46.8-32.6-47.4c-1.3,0-2.4-1.1-2.4-2.4
				s1.1-2.4,2.4-2.4c20.5,0,37.3,23.4,37.3,52.1S230.7,123,210.2,123C208.9,123,207.9,122,207.9,120.7z"/>
			<path class="st4" d="M199.2,1.7L199.2,1.7c2.2-2.2,5.9-2.2,8.1,0l16,16c2.2,2.2,2.2,5.9,0,8.1l0,0c-2.2,2.2-5.9,2.2-8.1,0
				c0,0,0,0,0,0l-16-16C197,7.6,197,3.9,199.2,1.7z"/>
			<path class="st4" d="M199.2,140.2L199.2,140.2c2.2,2.2,5.9,2.2,8.1,0l16-16c2.2-2.2,2.2-5.9,0-8.1l0,0c-2.2-2.2-5.9-2.2-8.1,0
				l-16,16C197,134.3,197,137.9,199.2,140.2z"/>
			<ellipse class="st13" cx="242.7" cy="70.9" rx="16.3" ry="14.6"/>
			<path class="st14" d="M237.6,81c-6.2,0-11.2-4.5-11.2-10.1s5-10.1,11.2-10.1s11.2,4.5,11.2,10.1S243.8,81,237.6,81z"/>
			<ellipse class="st0" cx="215.9" cy="18.3" rx="8.7" ry="8.6"/>
			<ellipse class="st0" cx="215.9" cy="123.6" rx="8.7" ry="8.6"/>
			<g class="st15">
				<path class="st7" d="M62.7,70.9L62.7,70.9c0-10.8,8.8-19.6,19.6-19.6h54.4c10.8,0,19.6,8.8,19.6,19.6c0,0,0,0,0,0l0,0
					c0,10.8-8.8,19.6-19.6,19.6l0,0H82.3C71.5,90.5,62.7,81.8,62.7,70.9z"/>
			</g>
			<circle class="st16" cx="96.9" cy="70.9" r="26.8"/>
			<path class="st16" d="M78.7,62.4c-0.9-2.4-1-5-0.5-7.5c0.6-2.9,2.2-5.5,4.5-7.4c0.8-0.7,1.8-1.3,2.8-1.7l49-21
				c2.5-1.1,5.3-1.2,7.9-0.3c3.5,1.2,6.2,4,7.4,7.4c0.7,1.8,0.9,3.8,0.7,5.7c-0.3,4.7-3.2,8.9-7.6,10.9l-22.3,9.5l-3.9,1.7L94,69.6
				c-0.9,0.4-1.8,0.6-2.7,0.8C85.7,71.1,80.4,67.8,78.7,62.4z"/>
			<path class="st4" d="M91.3,70.3c-3.5-1.2-6.2-4-7.4-7.5c-1.9-5.3-0.3-11.2,4-14.9c0.8-0.7,1.8-1.3,2.8-1.7l1.9-0.8l47.1-20.1l0,0
				c0.8-0.4,1.7-0.6,2.6-0.8l0,0c0.2,0.1,0.4,0.1,0.6,0.2s0.4,0.2,0.6,0.3c0.1,0,0.2,0.1,0.3,0.2c0.2,0.1,0.4,0.2,0.6,0.3
				s0.5,0.3,0.7,0.4s0.4,0.3,0.7,0.5s0.4,0.4,0.7,0.6c0.2,0.2,0.4,0.4,0.6,0.5c0.2,0.2,0.4,0.4,0.6,0.6l0.1,0.1
				c0.3,0.4,0.6,0.8,0.9,1.3c0.1,0.2,0.3,0.5,0.4,0.7c0.3,0.6,0.5,1.1,0.8,1.7c0.7,1.8,0.9,3.8,0.7,5.7c-0.3,4.7-3.2,8.9-7.5,10.9
				l-22.3,9.5c0.5,0.7,0.9,1.4,1.3,2.1l-4.1,1.8l-18.7,8C96.7,71.1,93.9,71.2,91.3,70.3z"/>
			<g class="st17">
				<path class="st18" d="M142.1,45.1c3.3-3.7,4.3-8.9,2.6-13.5c-0.9-2.6-2.6-4.8-4.9-6.3c0.8-0.4,1.7-0.6,2.6-0.8
					c0.2,0.1,0.4,0.1,0.6,0.2s0.4,0.2,0.6,0.3c0.1,0,0.2,0.1,0.3,0.2c0.2,0.1,0.4,0.2,0.6,0.3s0.5,0.3,0.7,0.4s0.4,0.3,0.7,0.5
					s0.4,0.4,0.7,0.6c0.2,0.2,0.4,0.4,0.6,0.5c0.2,0.2,0.4,0.4,0.6,0.6l0.1,0.1c0.3,0.4,0.6,0.8,0.9,1.3c0.1,0.2,0.3,0.5,0.4,0.7
					c0.3,0.6,0.5,1.1,0.8,1.7c0.7,1.8,0.9,3.8,0.7,5.7c0,0.4-0.1,0.7-0.1,1c-1.9,2-3.6,4.1-5.2,6.3L142.1,45.1z"/>
			</g>
			<path class="st16" d="M135.9,116.3L86.6,95.8c-1-0.4-2-1-2.8-1.7c-2.3-1.9-3.9-4.4-4.5-7.3l0,0c-0.6-2.5-0.5-5.1,0.4-7.5
				c1.7-5.3,6.9-8.7,12.5-8c0.9,0.1,1.9,0.4,2.7,0.8l22.9,9.5l3.9,1.6l22.4,9.3c4.3,1.9,7.3,6.1,7.6,10.8c0.2,1.9,0,3.9-0.7,5.7
				c-1.1,3.5-3.8,6.3-7.3,7.5C141.2,117.4,138.4,117.4,135.9,116.3z"/>
			<path class="st4" d="M143.8,116.5c-0.9-0.1-1.9-0.4-2.7-0.7L93.7,96.1l-1.9-0.8c-1-0.4-2-1-2.8-1.7l0,0c-4.3-3.6-6-9.5-4.1-14.8
				c1.1-3.5,3.8-6.3,7.3-7.5c2.6-0.9,5.4-0.8,7.9,0.3l18.8,7.8l4.2,1.7c-0.4,0.7-0.8,1.5-1.2,2.1l22.4,9.3c4.3,1.9,7.3,6.1,7.6,10.8
				c0.2,1.9,0,3.9-0.7,5.7C149.9,112.5,147.2,115.3,143.8,116.5z"/>
			<path class="st4" d="M102.1,97.7c-0.9,0-1.7,0-2.6-0.1l0,0c-3.5-0.3-6.8-1.4-9.9-3l0,0c-3.5-1.9-6.6-4.5-9-7.7l0,0
				c-7.1-9.5-7.1-22.5,0-32C85.1,48.8,92,45,99.5,44.3l0,0c0.9-0.1,1.7-0.1,2.6-0.1c8.3,0,16.1,3.8,21.1,10.3c0.5,0.6,1,1.3,1.4,2
				c5.7,8.8,5.7,20.1,0,28.9c-0.4,0.7-0.9,1.4-1.4,2C118.2,93.9,110.4,97.7,102.1,97.7z"/>
			<path class="st19" d="M146.5,102.6h-0.1l-7.1-1c-3.7-1-7.2-2.7-10.4-5c-8-5.7-14-15-14-25.6c0-17.7,16.6-31.7,31.6-31.7
				s22.8,14,22.8,31.7S161.5,102.6,146.5,102.6z"/>
			<g class="st17">
				<path class="st18" d="M143.7,116.5c-0.9-0.1-1.8-0.4-2.6-0.7c2.3-1.5,4-3.7,4.9-6.3c0.6-1.8,0.9-3.8,0.7-5.7
					c-0.3-2.8-1.4-5.5-3.3-7.6c1,0,1.9,0,2.9-0.1h0.1c1.6,2.1,3.4,4.2,5.2,6.1c0.1,0.3,0.1,0.7,0.1,1c0.2,1.9,0,3.9-0.7,5.7
					c-0.2,0.6-0.5,1.2-0.7,1.7c-0.1,0.2-0.2,0.5-0.4,0.7c-0.3,0.4-0.6,0.9-0.9,1.3l-0.1,0.1c-0.2,0.2-0.4,0.4-0.6,0.6
					c-0.2,0.2-0.4,0.4-0.6,0.6c-0.2,0.2-0.4,0.4-0.7,0.6s-0.4,0.3-0.7,0.5c-0.2,0.2-0.5,0.3-0.7,0.4c-0.2,0.1-0.4,0.2-0.6,0.3
					c-0.1,0.1-0.2,0.1-0.3,0.2c-0.2,0.1-0.4,0.2-0.6,0.3L143.7,116.5z"/>
			</g>
			
				<linearGradient id="SVGID_1_" gradientUnits="userSpaceOnUse" x1="-148.09" y1="44.8119" x2="-20.86" y2="44.8119" gradientTransform="matrix(6.123234e-17 1 1 -6.123234e-17 131.37 155.4)">
				<stop  offset="0" style="stop-color:#A0E010"/>
				<stop  offset="1" style="stop-color:#ACFF12"/>
			</linearGradient>
			<path class="st20" d="M204.6,134.5c-1.3,0-2.5,0-3.8-0.1c-35.2-1.9-63.3-29.7-63.3-63.5c0-9.6,2.3-19.1,6.7-27.7
				c1.9-3.8,4.2-7.3,6.9-10.6c12.2-15.1,30.3-24.3,49.7-25.2c1.3-0.1,2.5-0.1,3.8-0.1c6.1,0.5,10.6,5.8,10.1,11.8
				c-0.4,5.4-4.7,9.7-10.1,10.1c-25,0-45.3,18.7-45.3,41.7s20.3,41.7,45.3,41.7c6.1,0.5,10.6,5.8,10.1,11.8
				C214.3,129.8,210,134.1,204.6,134.5L204.6,134.5z"/>
			<g class="st21">
				<path class="st7" d="M204.6,134.5c-37,0-67-28.5-67-63.6c0-9.6,2.3-19.1,6.7-27.7c1.9-3.8,4.2-7.3,6.9-10.6
					c13-16.1,32.7-25.4,53.4-25.3c0.5,0,0.9,0,1.4,0.1c-19.4,0.9-37.5,10.1-49.7,25.2c-2.6,3.3-4.9,6.8-6.9,10.6
					c-4.4,8.6-6.7,18.1-6.7,27.7c0,33.9,28,61.7,63.3,63.5C205.6,134.5,205.1,134.5,204.6,134.5z"/>
			</g>
			<path class="st7" d="M177.3,93.8c-12.6,0-22.9-10.3-22.9-22.9S164.6,48,177.3,48c0.9,0,1.9,0.1,2.8,0.2
				c12.5,1.6,21.4,13,19.8,25.6c-1.3,10.4-9.5,18.5-19.8,19.8C179.2,93.8,178.2,93.8,177.3,93.8z"/>
			<path class="st22" d="M182.4,93.1c-0.9,0-1.9-0.1-2.8-0.2c11.3-1.3,20.1-10.7,20.1-22s-8.8-20.7-20.1-22c0.9-0.1,1.9-0.2,2.8-0.2
				c12.6,0,22.9,9.9,22.9,22.2S195,93.1,182.4,93.1z"/>
			<ellipse class="st23" cx="180.1" cy="70.9" rx="20.1" ry="22.7"/>
			
				<linearGradient id="SVGID_2_" gradientUnits="userSpaceOnUse" x1="-116.17" y1="-13.96" x2="-52.79" y2="-13.96" gradientTransform="matrix(6.123234e-17 1 1 -6.123234e-17 131.37 155.4)">
				<stop  offset="0" style="stop-color:#A0E010"/>
				<stop  offset="1" style="stop-color:#ACFF12"/>
			</linearGradient>
			<path class="st24" d="M146.5,102.6l-43.7-6.3c-8.5-1.4-14.6-7.9-14.6-15.5V61.1c0-7.6,6.1-14.2,14.6-15.5l40.5-5.8l3.2-0.5
				L146.5,102.6z"/>
			<g class="st21">
				<path class="st7" d="M146.5,102.6h-0.1l-7.1-1l-36.4-5.3c-8.5-1.4-14.6-7.9-14.6-15.5v-3.6c0,7.6,6.1,14.2,14.6,15.5l26.1,3.8
					l17.6,2.5L146.5,102.6z"/>
			</g>
			
				<linearGradient id="SVGID_3_" gradientUnits="userSpaceOnUse" x1="-121.78" y1="-87.78" x2="-47.18" y2="-87.78" gradientTransform="matrix(6.123234e-17 1 1 -6.123234e-17 131.38 155.4)">
				<stop  offset="0" style="stop-color:#A0E010"/>
				<stop  offset="1" style="stop-color:#ACFF12"/>
			</linearGradient>
			<rect x="6.3" y="33.6" class="st25" width="74.6" height="74.6"/>
			<path class="st26" d="M39.7,50.6v-2.8c0-0.7,0.8-0.8,1.3-0.3l5.5,5.5c0.1,0.1,0.3,0.2,0.5,0.3l2.5,0.7l-0.1-9.3
				c-0.1-0.5-0.4-0.9-0.8-1L46.4,43c-0.3-0.1-0.7,0-0.8,0.3c0,0.1,0,0.2,0,0.3v3.9l-6.8-6.7c-0.1-0.1-0.3-0.2-0.5-0.3L36,39.8v9.7
				c0,0.5,0.4,0.9,0.8,1l2.1,0.6c0.3,0.1,0.7,0,0.8-0.3C39.7,50.8,39.7,50.7,39.7,50.6z"/>
			<path class="st26" d="M46.7,64.9v-2.5l-1-0.3c0.9-0.6,1.4-1.7,1.3-2.8c0-2.8-2.5-5.8-5.7-6.7s-5.5,0.7-5.5,3.4
				c0,1.3,0.4,2.5,1.2,3.5l-1-0.3v2.5c0,0.4,0.3,0.7,0.7,0.8l9.3,2.8c0.2,0.1,0.5,0,0.6-0.3C46.7,65,46.7,64.9,46.7,64.9z
				 M41.3,60.8c-1.5-0.4-2.6-1.7-2.6-3.3c0-1.4,1-2.2,2.6-1.7c1.5,0.4,2.6,1.7,2.6,3.3C43.9,60.5,42.9,61.2,41.3,60.8z"/>
			<path class="st26" d="M47,74.4c0-1.3-0.5-2.6-1.3-3.6l1,0.3v-2.6c0-0.4-0.3-0.7-0.7-0.9l-13.5-4.1c-0.2-0.1-0.5,0-0.6,0.2
				c0,0.1,0,0.1,0,0.2v1.8c0,0.4,0.3,0.7,0.6,0.8l3.2,1c0.5,0.2,0.8,0.8,0.6,1.1c-0.4,0.6-0.5,1.3-0.5,2c0,2.8,2.4,5.8,5.6,6.8
				S47,77.2,47,74.4z M41.3,74.5c-1.5-0.4-2.6-1.8-2.6-3.3c0-1.5,1-2.2,2.6-1.7c1.5,0.4,2.6,1.8,2.7,3.4C44,74.3,43,75,41.3,74.5
				L41.3,74.5z"/>
			<path class="st26" d="M38.8,84.5c0-1.5,1-2.2,2.6-1.7c1.5,0.5,2.6,1.8,2.6,3.4c0,1.2-0.6,1.9-1.7,1.9l0.5,0.5l-0.4,0.5l-0.6,0.7
				l-0.3,0.4L40.8,91c0.2,0.1,0.4,0.2,0.6,0.2c3.2,1.1,5.7-0.5,5.7-3.3c0-1.3-0.5-2.6-1.3-3.7l1,0.3V82c0-0.4-0.3-0.8-0.7-0.9
				l-13.6-4.3c-0.2-0.1-0.5,0-0.6,0.2c0,0.1,0,0.1,0,0.2v1.9c0,0.4,0.3,0.7,0.6,0.9l3.2,1c0.5,0.2,0.8,0.8,0.6,1.2
				c-0.4,0.6-0.6,1.3-0.5,2.1c0.1,2.1,1.1,4,2.8,5.4l2.9-1.5C39.9,87.5,38.8,86.1,38.8,84.5z"/>
			<path class="st26" d="M42.5,96.3c-0.4-0.6-0.7-1.1-1.1-1.7c-0.7-1-1.4-2-2.1-2.9c0,0-0.1-0.1-0.1-0.1l1-1l1-1
				c0.3-0.3,0.7-0.7,1-1l0,0l-6.2,2.9c4.3,3.8,8,8.4,10.7,13.5c0,0,0,0,0-0.1c-0.2-0.4-0.3-0.8-0.5-1.3c-0.6-1.6-1.4-3.2-2.2-4.7
				C43.5,98,43,97.2,42.5,96.3z"/>
			<path class="st26" d="M43.8,101.7c-0.3-0.4-0.5-0.8-0.8-1.2c-1.2,0.4-2.5,0.5-3.8,0.3c-5.6-0.6-9.7-5.7-9.1-11.3
				c0.3-2.5,1.5-4.8,3.4-6.5c-0.4-0.1-0.8-0.4-1.1-0.8c-0.5,0.5-1,1-1.4,1.6c-0.1,0.1-0.2,0.3-0.3,0.4c-1,1.5-1.7,3.2-1.9,5
				c-0.3,2.4,0.2,4.8,1.3,6.9c0.1,0.2,0.2,0.3,0.3,0.5c2.5,4.3,7.5,6.4,12.3,5.4C43.1,101.9,43.5,101.8,43.8,101.7z"/>
			<path class="st26" d="M35.1,83.1h-0.7c-4.2,3.2-5,9.3-1.7,13.5c1.6,2.1,4,3.4,6.6,3.7c1.1,0.1,2.3,0,3.4-0.3l-0.3-0.4
				c-0.9,0.2-1.8,0.3-2.8,0.2c-1.4-0.1-2.8-0.5-4-1.3c-0.8-0.5-1.6-1.1-2.3-1.8c-3.3-3.9-2.9-9.7,1-13
				C34.6,83.5,34.8,83.3,35.1,83.1L35.1,83.1z"/>
			<path class="st26" d="M46.3,97.5c-0.2,0.2-0.4,0.3-0.5,0.4c-0.3,0.2-0.7,0.5-1,0.7l0,0L45,99c2.7-1.5,4.5-4.2,4.8-7.2
				c0.2-1.5,0-3-0.5-4.4c-0.1,0.3-0.2,0.5-0.3,0.8c0.1,0.5,0.3,1,0.3,1.6c0,0.5,0,1.1,0,1.6c-0.1,0.8-0.2,1.5-0.4,2.3
				C48.4,95.1,47.5,96.5,46.3,97.5z"/>
			
				<rect x="39.1" y="98.5" transform="matrix(7.167154e-02 -0.9974 0.9974 7.167154e-02 -61.5879 131.2645)" class="st26" width="1.2" height="0.4"/>
			
				<rect x="47.8" y="90.5" transform="matrix(7.167154e-02 -0.9974 0.9974 7.167154e-02 -46.3957 132.4432)" class="st26" width="0.4" height="1.2"/>
			
				<rect x="32.3" y="89.4" transform="matrix(7.167154e-02 -0.9974 0.9974 7.167154e-02 -59.6367 115.998)" class="st26" width="0.4" height="1.2"/>
			<path class="st26" d="M47.9,88.1l0.7-1.4l0,0l0.5-0.9c0.2,0.2,0.4,0.5,0.5,0.8c0.7,1.7,1,3.6,0.8,5.4c-0.4,3.2-2.3,6-5.1,7.6
				c0.2,0.4,0.4,0.8,0.6,1.2c0.3-0.2,0.6-0.3,0.9-0.5l0,0c0.7-0.5,1.3-1,1.9-1.7l0,0c1.5-1.6,2.5-3.6,3-5.8l0,0
				c0.1-0.8,0.2-1.6,0.2-2.4l0,0c-0.1-1.9-0.6-3.8-1.6-5.4l0.8-0.3l0,0l1.4-0.6l0,0l-5.2-1.3L47.9,88.1L47.9,88.1z"/>
			<polygon class="st26" points="48.6,86.7 48.6,86.7 48.6,86.7 48.6,86.7 			"/>
			<polygon class="st26" points="52.4,98.5 51.5,97.8 51.1,98.2 50.3,97.5 49.4,98.7 50.2,99.4 49.8,99.8 50.8,100.6 			"/>
			<path class="st26" d="M32.4,41.5h-0.2V40H35v0.2h-2.6L32.4,41.5z"/>
			<path class="st26" d="M33.2,42.4c0.6,0,1.1,0.4,1.1,1s-0.4,1.1-1,1.1s-1.1-0.4-1.1-1c0,0,0,0,0,0C32.1,42.9,32.6,42.5,33.2,42.4
				C33.1,42.4,33.1,42.4,33.2,42.4z M33.2,44.3c0.5,0,0.9-0.4,0.9-0.8s-0.4-0.9-0.8-0.9c-0.5,0-0.9,0.4-0.9,0.8v0
				C32.3,44,32.7,44.3,33.2,44.3C33.1,44.3,33.2,44.3,33.2,44.3z"/>
			<path class="st26" d="M34.2,47.8h-1.9c-0.5,0-0.9-0.4-0.9-0.9c0,0,0-0.1,0-0.1c0-0.4,0.2-0.7,0.5-0.9l0.1,0.2
				c-0.3,0.1-0.4,0.5-0.4,0.8c0,0.4,0.2,0.8,0.6,0.8c0,0,0.1,0,0.1,0h0.4c-0.3-0.2-0.5-0.5-0.5-0.9c0-0.6,0.5-1,1-1c0.6,0,1,0.5,1,1
				c0,0.4-0.2,0.7-0.5,0.9h0.5V47.8z M33.2,47.6c0.5,0,0.9-0.4,0.9-0.8s-0.4-0.9-0.8-0.9c-0.5,0-0.9,0.4-0.9,0.8v0
				C32.3,47.2,32.7,47.6,33.2,47.6C33.1,47.6,33.2,47.6,33.2,47.6z"/>
			<path class="st26" d="M34.4,49.2l0.5,0.2v0.3l-0.5-0.3V49.2z M32.2,49.2v0.2h2v-0.2H32.2z"/>
			<path class="st26" d="M32.7,52.2c-0.3,0-0.6-0.3-0.6-0.7c0-0.3,0.1-0.6,0.4-0.8l0.1,0.2c-0.2,0.1-0.4,0.3-0.3,0.6
				c0,0.3,0.1,0.5,0.4,0.5c0.5,0,0.2-1.2,1-1.2c0.3,0,0.6,0.3,0.6,0.6c0,0,0,0,0,0c0,0.3-0.1,0.6-0.4,0.7l-0.1-0.2
				c0.2-0.1,0.3-0.3,0.3-0.5c0-0.3-0.1-0.5-0.4-0.5C33.1,51,33.4,52.2,32.7,52.2z"/>
			<path class="st26" d="M34,53.8h-1.3c-0.3,0-0.3,0.2-0.3,0.6h-0.2c-0.1-0.5,0-0.8,0.5-0.8H34v-0.4h0.2v0.4h0.5l0.1,0.2h-0.6v0.6
				H34V53.8z"/>
			<path class="st26" d="M34.8,55.6c0.1,0,0.2,0.1,0.2,0.2c0,0.1-0.1,0.2-0.2,0.2c0,0,0,0,0,0c-0.1,0-0.2-0.1-0.2-0.2
				C34.6,55.7,34.7,55.6,34.8,55.6C34.8,55.6,34.8,55.6,34.8,55.6z M34.2,55.7v0.2h-2v-0.2H34.2z"/>
			<path class="st26" d="M33.2,57.1c0.6,0,1,0.4,1,1c0,0.4-0.2,0.7-0.5,0.9l-0.1-0.2c0.3-0.1,0.4-0.4,0.4-0.7c0-0.5-0.4-0.8-0.8-0.8
				c-0.5,0-0.9,0.4-0.9,0.8c0,0.3,0.2,0.6,0.4,0.7L32.6,59c-0.3-0.2-0.5-0.5-0.5-0.9C32.1,57.6,32.5,57.1,33.2,57.1
				C33.1,57.1,33.1,57.1,33.2,57.1z"/>
			<path class="st26" d="M34.2,62.3h-2V62h0.5c-0.3-0.2-0.5-0.5-0.5-0.9c0-0.6,0.5-1,1-1c0.6,0,1,0.5,1,1c0,0.4-0.2,0.7-0.5,0.9h0.5
				L34.2,62.3z M33.2,62c0.5,0,0.9-0.4,0.9-0.8s-0.4-0.9-0.8-0.9c-0.5,0-0.9,0.4-0.9,0.8v0C32.3,61.7,32.7,62,33.2,62
				C33.1,62.1,33.2,62.1,33.2,62z"/>
			<path class="st26" d="M136.1,61v-1.6c0-0.4,0.4-0.5,0.8-0.3l3.4,2.8c0.1,0.1,0.2,0.1,0.3,0.2l1.6,0.3l-0.1-5.6
				c0-0.3-0.3-0.5-0.6-0.5l-1.3-0.1c-0.2,0-0.5,0.1-0.5,0.4c0,0,0,0,0,0.1v2.3l-4.1-3.2c-0.1-0.1-0.2-0.1-0.3-0.1l-1.3-0.1l0.1,5.3
				c0,0.3,0.2,0.5,0.5,0.5l1.1,0.2c0.2,0.1,0.4,0,0.5-0.2C136.1,61.1,136.1,61,136.1,61z"/>
			<path class="st26" d="M140.3,68.8v-1.4l-0.6-0.2c0.6-0.3,0.9-1,0.8-1.6c-0.2-1.8-1.7-3.3-3.5-3.5c-1.8-0.3-3.1,0.7-3,2.1
				c0,0.7,0.3,1.3,0.7,1.8l-0.5-0.1v1.3c0,0.2,0.2,0.4,0.4,0.4l5.4,1.4C140.1,69.1,140.3,69,140.3,68.8z M137.1,66.5
				c-0.8-0.2-1.4-0.9-1.5-1.7c0-0.8,0.5-1.3,1.4-1.1c0.9,0.1,1.5,0.9,1.6,1.7C138.6,66.3,138,66.8,137.1,66.5z"/>
			<path class="st26" d="M140.6,74.1c0-0.7-0.3-1.5-0.8-2l0.6,0.2v-1.4c0-0.2-0.2-0.4-0.4-0.5l-7.6-2.2c-0.1-0.1-0.3,0-0.3,0.1
				c0,0,0,0.1,0,0.1v0.9c0,0.2,0.1,0.4,0.3,0.4l1.7,0.5c0.3,0.1,0.4,0.4,0.3,0.6c-0.2,0.3-0.3,0.7-0.3,1.1c0.3,1.7,1.5,3.2,3.1,3.8
				C139.1,76.4,140.6,75.7,140.6,74.1z M137.2,74c-0.8-0.2-1.4-1-1.5-1.8c0-0.8,0.5-1.2,1.4-0.9c0.9,0.2,1.5,1,1.6,1.9
				C138.7,74,138.1,74.3,137.2,74z"/>
			<path class="st26" d="M135.9,79.1c0-0.8,0.5-1.1,1.4-0.7c0.9,0.3,1.5,1.1,1.5,2c0.1,0.4-0.2,0.8-0.6,0.9c-0.1,0-0.3,0-0.4,0
				l0.3,0.3l-0.2,0.2l-0.4,0.3l-0.2,0.2l-0.4,0.3l0.4,0.2c1.9,0.9,3.3,0.3,3.3-1.2c0-0.8-0.3-1.5-0.8-2.1l0.6,0.3v-1.4
				c0-0.2-0.2-0.4-0.4-0.5l-7.5-3c-0.2-0.1-0.3,0-0.3,0.2v0.9c0,0.2,0.1,0.4,0.3,0.5l1.6,0.7c0.3,0.1,0.4,0.4,0.3,0.6
				c-0.2,0.3-0.3,0.6-0.3,1c0.1,1.1,0.7,2.2,1.5,2.9l1.6-0.6C136.5,80.7,136,80,135.9,79.1z"/>
			<path class="st26" d="M138,85.5c-0.2-0.3-0.4-0.7-0.6-1c-0.4-0.6-0.8-1.2-1.2-1.7l-0.1-0.1l0.6-0.4l0.6-0.4
				c0.2-0.1,0.4-0.3,0.6-0.4l0,0l-3.4,0.9c2.4,2.4,4.4,5.2,6.1,8.2l0,0c-0.1-0.3-0.2-0.5-0.3-0.7c-0.4-0.9-0.8-1.9-1.3-2.7
				C138.6,86.6,138.3,86,138,85.5z"/>
			<path class="st26" d="M138.8,88.5c-0.1-0.2-0.3-0.5-0.5-0.7c-0.7,0-1.4-0.1-2.1-0.3c-2.9-0.9-5.1-3.9-4.7-6.6
				c0.1-1.1,0.7-2.1,1.6-2.8c-0.2-0.1-0.4-0.2-0.6-0.4c-0.3,0.2-0.5,0.5-0.7,0.7c0,0.1-0.1,0.1-0.1,0.2c-0.5,0.7-0.8,1.5-0.8,2.3
				c-0.1,1.2,0.1,2.4,0.7,3.4c0.1,0.1,0.1,0.2,0.2,0.3c0.7,1.3,1.7,2.3,3,3c1.1,0.6,2.2,0.9,3.4,1L138.8,88.5z"/>
			<path class="st26" d="M133.9,78.2l-0.3-0.1c-1.1,0.7-1.7,1.8-1.8,3.1c0,2.8,1.8,5.2,4.5,6c0.6,0.2,1.2,0.3,1.9,0.3
				c-0.1-0.1-0.1-0.2-0.2-0.2c-0.5,0-1-0.1-1.5-0.3c-0.8-0.2-1.5-0.6-2.1-1.1c-0.4-0.3-0.8-0.7-1.2-1.1c-1-1.2-1.3-2.8-1-4.3
				C132.4,79.5,133,78.7,133.9,78.2z"/>
			<path class="st26" d="M140.2,86.7l-0.3,0.2c-0.2,0.1-0.4,0.2-0.6,0.2l0,0l0.1,0.2c1.5-0.4,2.7-1.7,2.9-3.2c0.1-0.8,0-1.7-0.3-2.5
				c0,0.1-0.1,0.3-0.2,0.4c0.1,0.3,0.2,0.6,0.2,0.9c0,0.3,0,0.6,0,0.9c0,0.4-0.1,0.8-0.3,1.2C141.5,85.6,140.9,86.3,140.2,86.7z"/>
			<polygon class="st26" points="136.6,86.8 136.6,86.2 136.4,86.1 136.4,86.7 			"/>
			<polygon class="st26" points="140.9,83.2 140.8,83.4 141.6,83.6 141.6,83.4 			"/>
			<polygon class="st26" points="133,81.4 132.4,81.2 132.4,81.4 132.9,81.6 			"/>
			<path class="st26" d="M141.1,81.7l0.4-0.7l0,0l0.3-0.4c0.1,0.1,0.2,0.3,0.3,0.5c0.5,1,0.6,2,0.5,3.1c-0.3,1.7-1.5,3-3.1,3.4
				c0.1,0.2,0.3,0.5,0.4,0.7l0.5-0.2l0,0c0.4-0.2,0.8-0.4,1.2-0.6l0,0c0.9-0.7,1.6-1.7,1.9-2.8l0,0c0.1-0.4,0.1-0.9,0.1-1.3l0,0
				c-0.1-1.1-0.4-2.2-1-3.2l0.5-0.1l0,0l0.9-0.2l0,0l-3.4-1.1L141.1,81.7L141.1,81.7z"/>
			<polygon class="st26" points="141.6,81.1 141.6,81.1 141.6,81.1 141.6,81.1 			"/>
			<polygon class="st26" points="144.1,88 143.4,87.5 143.2,87.6 142.7,87.2 142.1,87.7 142.6,88.2 142.4,88.3 143,88.9 			"/>
			<path class="st26" d="M132,56.6h-0.1v-0.8l1.5-0.3v0.1l-1.4,0.3L132,56.6z"/>
			<path class="st26" d="M132.5,57c0.2,0,0.5,0.1,0.5,0.4c0,0,0,0.1,0,0.1c0,0.3-0.2,0.6-0.5,0.7c-0.2,0-0.5-0.1-0.5-0.4
				c0,0,0-0.1,0-0.1C131.9,57.3,132.2,57.1,132.5,57z M132.5,58c0.3,0,0.4-0.3,0.4-0.5c0-0.2-0.1-0.4-0.4-0.4c0,0-0.1,0-0.1,0
				c-0.2,0-0.4,0.3-0.4,0.5c0,0.2,0.1,0.4,0.3,0.4C132.4,58,132.4,58,132.5,58L132.5,58z"/>
			<path class="st26" d="M133,59.8l-1,0.1c-0.2,0-0.4-0.1-0.5-0.3c0,0,0-0.1,0-0.1c0-0.2,0.1-0.4,0.2-0.5V59
				c-0.1,0.1-0.2,0.3-0.2,0.4c0,0.3,0.2,0.4,0.4,0.4h0.2c-0.2-0.1-0.3-0.2-0.3-0.4c0-0.3,0.2-0.6,0.5-0.6c0.3,0,0.5,0.1,0.5,0.4
				c0,0,0,0.1,0,0.1c0,0.2-0.1,0.4-0.3,0.5L133,59.8L133,59.8z M132.5,59.8c0.3,0,0.4-0.3,0.4-0.5c0-0.2-0.2-0.4-0.4-0.4
				c0,0-0.1,0-0.1,0c-0.3,0-0.4,0.3-0.4,0.5C132,59.6,132.2,59.8,132.5,59.8C132.5,59.8,132.5,59.8,132.5,59.8L132.5,59.8z"/>
			<path class="st26" d="M133.2,60.5l0.3,0.1v0.1l-0.3-0.1V60.5z M132,60.7L132,60.7l1,0v-0.1L132,60.7z"/>
			<path class="st26" d="M132.3,62.2c-0.2,0-0.3-0.1-0.3-0.3c0-0.2,0.1-0.3,0.2-0.4l0.1,0.1c-0.1,0.1-0.2,0.2-0.2,0.3
				c0,0.2,0.1,0.3,0.2,0.3c0.3,0,0.1-0.7,0.5-0.7c0.2,0,0.3,0.1,0.3,0.3c0,0.2-0.1,0.3-0.2,0.4l-0.1-0.1c0.1-0.1,0.2-0.2,0.1-0.3
				c0-0.1-0.1-0.3-0.2-0.2C132.5,61.6,132.7,62.2,132.3,62.2z"/>
			<path class="st26" d="M133,63l-0.7,0.1c-0.2,0-0.2,0.1-0.1,0.3h-0.1c0-0.3,0-0.4,0.3-0.4l0.7-0.1v-0.2h0.1v0.2h0.3V63L133,63
				l0.1,0.3H133V63z"/>
			<path class="st26" d="M133.5,63.9C133.5,63.9,133.5,64,133.5,63.9C133.5,64,133.5,64,133.5,63.9c0.1,0.1,0.1,0.2,0,0.2
				C133.4,64.1,133.4,64.1,133.5,63.9L133.5,63.9C133.4,64,133.4,63.9,133.5,63.9C133.5,63.9,133.5,63.9,133.5,63.9z M133.1,64
				L133.1,64l-1,0.2v-0.1L133.1,64z"/>
			<path class="st26" d="M132.6,64.8c0.3,0,0.5,0.2,0.5,0.4c0,0,0,0,0,0.1c0,0.2-0.1,0.4-0.3,0.5v-0.1c0.1-0.1,0.2-0.2,0.2-0.4
				C133.1,65.1,132.9,64.9,132.6,64.8c0.1,0.1,0.1,0.1,0.1,0.1c-0.2,0-0.4,0.2-0.4,0.5c0,0.2,0.1,0.3,0.2,0.4v0.1
				c-0.2-0.1-0.3-0.3-0.3-0.4C132.2,65.1,132.4,64.9,132.6,64.8z"/>
			<path class="st26" d="M133.2,67.4h-1v-0.1h0.2c-0.2-0.1-0.3-0.3-0.3-0.4c0-0.3,0.2-0.5,0.5-0.6c0.3,0,0.5,0.2,0.5,0.5
				c0,0,0,0,0,0c0,0.2-0.1,0.4-0.3,0.4h0.2L133.2,67.4z M132.7,67.4c0.2,0,0.4-0.2,0.4-0.4c0-0.2-0.1-0.5-0.4-0.5
				c-0.2,0-0.5,0.1-0.5,0.4c0,0,0,0.1,0,0.1C132.2,67.1,132.4,67.3,132.7,67.4C132.6,67.4,132.7,67.4,132.7,67.4z"/>
		</g>
	</g>
</g>
</svg>
