<svg xmlns="http://www.w3.org/2000/svg" viewBox="0 0 34.63 18.94"><g id="Capa_2" data-name="Capa 2"><g id="Capa_1-2" data-name="Capa 1"><path d="M5.68,7.88H31.82c.39,0,.78,0,1.18,0a1.52,1.52,0,0,1,1.63,1.55A1.54,1.54,0,0,1,33,11c-1.54,0-3.08,0-4.63,0h-22c-.22,0-.44,0-.82,0,.22.26.34.45.5.61,1.43,1.43,2.89,2.83,4.28,4.3A2.14,2.14,0,0,1,11,17.43a2.24,2.24,0,0,1-1,1.33,1.32,1.32,0,0,1-1.69-.33C5.71,15.82,3.08,13.21.49,10.57a1.51,1.51,0,0,1,0-2.26Q4.4,4.38,8.32.51a1.48,1.48,0,0,1,2.24,0,1.5,1.5,0,0,1,0,2.25C9.25,4.06,8,5.34,6.65,6.62a13.16,13.16,0,0,1-1.17.92Z"/></g></g></svg>