<svg xmlns="http://www.w3.org/2000/svg" viewBox="0 0 26.95 26"><g id="Capa_2" data-name="Capa 2"><g id="Capa_1-2" data-name="Capa 1"><path d="M7.48,11.52l.64,0c5,0,10.08,0,15.12,0,.6,0,.77-.19.85-.75.2-1.33.47-2.65.73-4.08H9.08a3.84,3.84,0,0,1-.48,0,.92.92,0,0,1-.89-1,.89.89,0,0,1,.89-1c.48,0,1,0,1.44,0H25.65c1.1,0,1.43.42,1.23,1.5-.58,3.2-1.15,6.4-1.74,9.6-.23,1.28-.39,1.41-1.71,1.41H9.06c-.33,0-.74-.11-.8.4s-.65,1,0,1.54a4.45,4.45,0,0,1,1,1.43c.17.34.32.48.7.47,3,0,5.91,0,8.87,0a.63.63,0,0,0,.69-.49,3.79,3.79,0,0,1,3.73-2.41,3.85,3.85,0,1,1-3.61,5.6c-.12-.25-.22-.5-.35-.78-3.16,0-6.32,0-9.48,0-.19,0-.45.31-.55.54A3.85,3.85,0,0,1,3.2,25a3.66,3.66,0,0,1-1.06-4.13,3.64,3.64,0,0,1,3.33-2.56.84.84,0,0,0,.78-.58,3.92,3.92,0,0,0,.12-2.84c-1.06-4-2-8-3.05-12-.07-.29-.14-.57-.23-.92H1.23C.45,1.92,0,1.55,0,1S.46,0,1.2,0H3.46c1,0,1.22.17,1.45,1.1q1.17,4.74,2.33,9.47C7.32,10.88,7.4,11.19,7.48,11.52Zm1,3.85H23.28l.29-1.86H8ZM25,22.13a1.92,1.92,0,0,0-1.92-1.91,2,2,0,0,0-1.91,1.93,1.92,1.92,0,1,0,3.83,0ZM5.75,24.06a1.92,1.92,0,1,0-1.9-1.94A1.93,1.93,0,0,0,5.75,24.06Z"/></g></g></svg>