<svg xmlns="http://www.w3.org/2000/svg" viewBox="0 0 26.03 26"><defs><style>.cls-1{fill:#706f6f;}</style></defs><g id="Capa_2" data-name="Capa 2"><g id="Capa_1-2" data-name="Capa 1"><path class="cls-1" d="M17.32,2.21H9l0,.1,2.79.85C12.88,3.5,13,3.68,13,4.88V21.66h4.28c0-.21,0-.41,0-.61,0-1.46,0-2.91,0-4.36a3,3,0,0,1,0-.52,1.07,1.07,0,0,1,1.11-1,1,1,0,0,1,1,1c0,2.17,0,4.34,0,6.5,0,.71-.46,1.08-1.24,1.08H13c0,.38,0,.72,0,1.06A1.08,1.08,0,0,1,11.64,26q-5.26-1-10.53-2.09A1.15,1.15,0,0,1,0,22.52V1.33C0,.42.4,0,1.3,0h17a1.11,1.11,0,0,1,1.25,1.26q0,3.08,0,6.15a1.13,1.13,0,0,1-1.08,1.26,1.15,1.15,0,0,1-1.1-1.26c0-1.5,0-3,0-4.52Z"/><path class="cls-1" d="M22.16,13H16.78a4.56,4.56,0,0,1-.64,0,1.06,1.06,0,0,1-.93-1,1,1,0,0,1,.84-1.08,3.22,3.22,0,0,1,.69-.06h5.57a16.53,16.53,0,0,1-1.26-1.27,1.53,1.53,0,0,1-.4-1,1.21,1.21,0,0,1,.62-.86,1.25,1.25,0,0,1,1.1.16c1.16,1.06,2.25,2.18,3.34,3.3a1,1,0,0,1,0,1.47c-1.07,1.11-2.17,2.21-3.28,3.28a1.07,1.07,0,0,1-1.52-1.5c.41-.46.89-.86,1.33-1.28Z"/></g></g></svg>