<svg xmlns="http://www.w3.org/2000/svg" viewBox="0 0 26.68 26.69"><defs><style>.cls-1{fill:#707070;}</style></defs><g id="Capa_2" data-name="Capa 2"><g id="Capa_1-2" data-name="Capa 1"><path class="cls-1" d="M26.66,23.58a2.94,2.94,0,0,0-1-1.78l-3.74-3.6a.6.6,0,0,1-.13-.71,12.42,12.42,0,0,0,1-9.09A11.65,11.65,0,0,0,18.22,2,11.4,11.4,0,0,0,11.7,0,11.78,11.78,0,0,0,3.62,3.19,11.57,11.57,0,0,0,.1,10.08a11.88,11.88,0,0,0,1.58,7.64,11.67,11.67,0,0,0,9.92,5.55,13.79,13.79,0,0,0,6-1.47.66.66,0,0,1,.27-.06.61.61,0,0,1,.52.29,2.15,2.15,0,0,1,.14.26,3.72,3.72,0,0,0,.33.51c1.21,1.25,2.22,2.25,3.16,3.14a2.71,2.71,0,0,0,3.15.43A2.78,2.78,0,0,0,26.66,23.58ZM11.59,22h-.12A10.3,10.3,0,0,1,1.36,11.61,10.19,10.19,0,0,1,11.67,1.38h0A10.22,10.22,0,0,1,19,4.45,10,10,0,0,1,22,11.67,10.29,10.29,0,0,1,11.59,22Zm13.73,2c-.15.36-.56,1.31-1.43,1.31a1.5,1.5,0,0,1-1-.48c-.85-.78-1.65-1.57-2.51-2.4-.34-.35-.7-.7-1.07-1.05A.62.62,0,0,1,19.1,21a.6.6,0,0,1,.19-.44l1.2-1.15a.63.63,0,0,1,.86,0c.45.48.93.94,1.4,1.39a25.86,25.86,0,0,1,2.49,2.63A.61.61,0,0,1,25.32,24Z"/><path class="cls-1" d="M17.88,8.77a.62.62,0,0,0-.23,0c-.49.16-.44.68-.4.9a2.66,2.66,0,0,0,.09.32c0,.12.07.25.1.38a6,6,0,0,1-1,4.66,5.72,5.72,0,0,1-3.92,2.44,5.34,5.34,0,0,1-.89.07,5.9,5.9,0,1,1,0-11.79h0a6.38,6.38,0,0,1,1.09.12l.61.08h.1a.61.61,0,0,0,.63-.45.66.66,0,0,0-.38-.83,3,3,0,0,0-.56-.17,7.07,7.07,0,0,0-1.52-.16,7.27,7.27,0,0,0-1,14.48,6.19,6.19,0,0,0,1.05.08A7,7,0,0,0,16,17.52a7.32,7.32,0,0,0,2.64-3.78,6.66,6.66,0,0,0-.09-4.41C18.43,9.12,18.25,8.77,17.88,8.77Z"/></g></g></svg>