<svg width="52" height="65" viewBox="0 0 52 65" fill="none" xmlns="http://www.w3.org/2000/svg">
<path d="M49.5318 13.0619L17.533 4.48249L17.9943 2.76205C18.0626 2.54734 18.043 2.31434 17.9399 2.11401C17.8369 1.91367 17.6586 1.76231 17.4443 1.69303L15.1027 1.06522C14.8824 1.01796 14.6524 1.05986 14.4629 1.18176C14.2734 1.30365 14.1399 1.49563 14.0916 1.71569L0.256903 53.3155C0.188635 53.5302 0.208176 53.7632 0.31125 53.9636C0.414324 54.1639 0.592542 54.3153 0.806921 54.3846L3.1485 55.0124C3.36879 55.0596 3.59882 55.0177 3.78829 54.8958C3.97776 54.7739 4.11124 54.582 4.15954 54.3619L9.69334 33.7223L41.6921 42.3017C41.9124 42.349 42.1424 42.3071 42.3319 42.1852C42.5213 42.0633 42.6548 41.8713 42.7031 41.6513L50.0818 14.1309C50.15 13.9162 50.1305 13.6832 50.0274 13.4828C49.9244 13.2825 49.7461 13.1311 49.5318 13.0619ZM2.829 53.0836L2.04847 52.8743L15.4219 2.99494L16.2025 3.20421L2.829 53.0836ZM45.9843 23.1724L38.18 21.0799L35.8749 29.6773L43.6792 31.7698L41.3741 40.3672L33.5698 38.2747L35.8749 29.6773L28.0716 27.5851L25.7665 36.1825L17.9602 34.0895L20.2653 25.4921L12.461 23.3997L14.7661 14.8023L22.5704 16.8947L24.8755 8.29733L32.6818 10.3903L30.3767 18.9877L38.181 21.0802L40.4861 12.4828L48.2904 14.5752L45.9843 23.1724Z" fill="url(#paint0_linear)"/>
<path d="M31.1273 19.2149L22.3203 16.8536L19.959 25.6607L28.766 28.022L31.1273 19.2149Z" fill="url(#paint1_linear)"/>
<defs>
<linearGradient id="paint0_linear" x1="32.6631" y1="5.77345" x2="-23.5611" y2="88.8649" gradientUnits="userSpaceOnUse">
<stop stop-color="#1F90E8"/>
<stop offset="1" stop-color="#676B6E"/>
</linearGradient>
<linearGradient id="paint1_linear" x1="26.7238" y1="18.0343" x2="18.6128" y2="33.0406" gradientUnits="userSpaceOnUse">
<stop stop-color="#1F90E8"/>
<stop offset="1" stop-color="#676B6E"/>
</linearGradient>
</defs>
</svg>
