<svg xmlns="http://www.w3.org/2000/svg" viewBox="0 0 14.31 18.77"><defs><style>.cls-1{}</style></defs><g id="Capa_2" data-name="Capa 2"><g id="Capa_1-2" data-name="Capa 1"><path class="cls-1" d="M7.17.5a6.69,6.69,0,0,1,6.6,6,9.41,9.41,0,0,1-1.4,5.58,23.84,23.84,0,0,1-4.79,6c-.31.3-.59.29-1-.08C6,17.35,5.35,16.71,4.75,16a19.52,19.52,0,0,1-3.42-5.2A8.29,8.29,0,0,1,.57,6.29,6.53,6.53,0,0,1,3.92,1.37,6.36,6.36,0,0,1,7.17.5ZM7,10.83a3.69,3.69,0,1,0,.42-7.36,3.73,3.73,0,0,0-3.9,3.38A3.67,3.67,0,0,0,7,10.83Z"/></g></g></svg>