<svg xmlns="http://www.w3.org/2000/svg" viewBox="0 0 137.18 137.18"><defs><style>.cls-1{fill:#c5c5c5;}.cls-2{fill:#b1b1b1;}</style></defs><g id="Capa_2" data-name="Capa 2"><g id="Capa_1-2" data-name="Capa 1"><path class="cls-1" d="M68.59,137.18a68.59,68.59,0,1,1,68.59-68.59A68.67,68.67,0,0,1,68.59,137.18Zm0-130.38a61.79,61.79,0,1,0,61.79,61.79A61.86,61.86,0,0,0,68.59,6.8Z"/><path class="cls-2" d="M37.05,80.17l-3.11-.23c-.08-.72-.44-1.54-.18-2.07,1.86-3.86,3.85-7.65,5.81-11.51.9-.07,1.65-.17,2.4-.17,17.71,0,35.41,0,53.12,0a3.27,3.27,0,0,1,3.42,2.11c1.34,2.88,2.86,5.67,4.3,8.5,1.28,2.52.89,3.18-2,3.32-.22,0-.44.06-.82.12v2q0,12.09,0,24.17c0,.94.15,1.93-1,2.57H38.1c-1.14-.48-1.05-1.46-1.05-2.41V80.17Zm29.78,25.59c0-.52.1-.87.1-1.21,0-2.24,0-4.47,0-6.71,0-1,.34-1.88,1.52-2,1-.1,1.59.7,1.65,2.06,0,1.12,0,2.24,0,3.36v4.46H96.82V80.06H73.19l-2.67-4.92-.39.08c0,2.21,0,4.41,0,6.62A4.08,4.08,0,0,1,70,83.57c-.28.55-1,1.31-1.38,1.26a2.41,2.41,0,0,1-1.55-1.28,5.09,5.09,0,0,1-.13-2.08c0-2.08,0-4.16,0-6.24l-.38-.07-2.72,5H40.27v25.65ZM41.47,69.35l-3.83,7.56H62.13l3.77-7.56Zm54.13,0H71.17l3.75,7.5H99.41Z"/><path class="cls-2" d="M52.65,45.77a15.89,15.89,0,1,1,15.8,15.88A16,16,0,0,1,52.65,45.77ZM68.62,33A12.74,12.74,0,1,0,81.28,45.92,12.77,12.77,0,0,0,68.62,33Z"/><path class="cls-2" d="M36.93,36.25c-.29-2.12.52-3.06,1.94-2.4,2.52,1.18,4.94,2.57,7.25,3.79.29,2.1-.53,3-1.94,2.39C41.65,38.86,39.23,37.46,36.93,36.25Z"/><path class="cls-2" d="M90.85,37.69c2.42-1.28,4.84-2.68,7.37-3.85,1.41-.65,2.22.32,1.9,2.42-2.31,1.21-4.74,2.6-7.26,3.78C91.53,40.67,90.75,39.82,90.85,37.69Z"/><path class="cls-2" d="M46.2,53.85c-2.45,1.28-4.89,2.65-7.42,3.83-1.3.61-2.07-.28-1.93-2.36l4.43-2.38c.82-.44,1.64-.91,2.48-1.3C45.46,50.84,46.35,51.52,46.2,53.85Z"/><path class="cls-2" d="M100.2,55.28c.16,2.36-.69,3-2.41,2.19-2.34-1.16-4.64-2.42-6.81-3.56-.36-2,.36-3,1.65-2.48C95.28,52.6,97.81,54,100.2,55.28Z"/><path class="cls-2" d="M95.58,47.25c-1.12,0-2.24,0-3.35,0a1.37,1.37,0,0,1-1.5-1.4,1.39,1.39,0,0,1,1.51-1.57c2.23,0,4.47,0,6.7,0a1.48,1.48,0,0,1,0,2.95c-1.11.06-2.23,0-3.35,0Z"/><path class="cls-2" d="M41.6,47.26c-1.12,0-2.24,0-3.35,0a1.4,1.4,0,0,1-1.54-1.55,1.37,1.37,0,0,1,1.47-1.43c2.24,0,4.47,0,6.71,0a1.35,1.35,0,0,1,1.44,1.45c0,1-.6,1.49-1.56,1.52S42.66,47.26,41.6,47.26Z"/><path class="cls-2" d="M56.86,99a1.75,1.75,0,0,1-2,1.51c-2.64,0-5.28,0-7.92,0-1.77,0-2.24-1-1.35-2.82a11.22,11.22,0,0,1,1.76-.27c2.4,0,4.81,0,7.21,0C55.71,97.36,56.66,97.61,56.86,99Z"/><path class="cls-2" d="M69.74,91.58H66.8a10.22,10.22,0,0,1,1-2.42,1.41,1.41,0,0,1,1.39-.09,7.67,7.67,0,0,1,1,1.9Z"/><path class="cls-2" d="M60.82,47.31c.42-.65.67-1.5,1.2-1.73A2.44,2.44,0,0,1,63.9,46a28.17,28.17,0,0,1,2.61,2.18l5.63-6.7c.19-.23.37-.46.56-.68,1.11-1.28,2-1.51,2.82-.75s.62,1.52-.43,2.77q-3.41,4.05-6.83,8.08c-1.07,1.25-1.75,1.34-3,.32C63.91,50.06,62.56,48.84,60.82,47.31Z"/></g></g></svg>