<svg xmlns="http://www.w3.org/2000/svg" viewBox="0 0 66.48 69.39"><defs><style>.cls-1{fill:#7f7f7f;}</style></defs><g id="Capa_2" data-name="Capa 2"><g id="Capa_1-2" data-name="Capa 1"><path class="cls-1" d="M17,5.72c1.38.34,3.53.81,5.64,1.41a2.54,2.54,0,0,0,3-1c1-1.27,1.95-2.53,3-3.7,3-3.22,6.11-3.27,9.09-.11a48.37,48.37,0,0,1,3.12,3.84,2.55,2.55,0,0,0,3,1c1.63-.47,3.26-1,4.93-1.31,4-.74,6.41,1,6.94,5A32.13,32.13,0,0,1,56,15.16,3.56,3.56,0,0,0,58.71,19,30.62,30.62,0,0,1,63,20.63c3.57,1.86,4.37,4.77,2.35,8.26a44.23,44.23,0,0,1-2.42,3.74,3.13,3.13,0,0,0,0,4.08c.9,1.25,1.74,2.55,2.51,3.88,2,3.37,1.14,6.34-2.32,8.15a28.7,28.7,0,0,1-3.83,1.5c-2.64.92-3.17,1.66-3.26,4.43a34.48,34.48,0,0,1-.33,4.43c-.51,3.25-2.68,4.95-5.95,4.53A39.93,39.93,0,0,1,44,62.27a2.62,2.62,0,0,0-3.16,1c-1,1.27-2,2.53-3,3.7-2.92,3.14-6,3.18-9,.1a38.46,38.46,0,0,1-3-3.7,2.76,2.76,0,0,0-3.43-1.11,36.58,36.58,0,0,1-4.78,1.26c-3.91.7-6.29-1-6.86-4.94a35.15,35.15,0,0,1-.24-4.11c-.09-2.57-.65-3.32-3.08-4.22A29.37,29.37,0,0,1,3,48.48c-3-1.74-3.77-4.5-2.1-7.6.6-1.11,1.32-2.15,2-3.2,1.91-2.86,1.92-3.06,0-5.86-.67-1-1.35-2-1.94-3.07-1.9-3.32-1.09-6.24,2.29-8a27.37,27.37,0,0,1,3.82-1.52c2.77-1,3.25-1.64,3.35-4.53a31.92,31.92,0,0,1,.37-4.59C11.36,7.17,13.31,5.65,17,5.72ZM50.38,59.18c.27-.45.78-.93.85-1.46.23-2,.26-3.94.49-5.91a5.81,5.81,0,0,1,3.65-4.92q1.65-.73,3.36-1.35c3.64-1.31,3.65-1.3,1.55-4.47-.58-.87-1.14-1.75-1.7-2.63a6.57,6.57,0,0,1,0-7.46q1.31-2.11,2.7-4.15c.74-1.08.59-1.79-.68-2.26q-2.39-.88-4.76-1.85a6.38,6.38,0,0,1-4.25-5.6c-.13-1.25-.15-2.52-.19-3.78-.1-3.24-.25-3.36-3.3-2.53-1,.26-1.92.5-2.86.79-3.37,1-6,0-8.14-2.73-.7-.92-1.43-1.82-2.17-2.7-1.6-1.92-1.79-1.93-3.42,0-.81,1-1.55,2-2.35,3a6.67,6.67,0,0,1-7.49,2.47c-1.48-.4-3-.74-4.46-1.19s-2,.13-2,1.47-.12,2.53-.16,3.8c-.1,3.62-1.67,6.18-5.23,7.36-1.3.43-2.57,1-3.87,1.43s-1.44,1.18-.7,2.26c.92,1.37,1.81,2.76,2.69,4.15a6.58,6.58,0,0,1,0,7.47c-.9,1.45-1.84,2.87-2.78,4.29-.64,1-.47,1.63.63,2,1.34.5,2.66,1,4,1.51,3.76,1.28,5.33,4,5.29,7.84,0,1,0,2,.08,3,.15,2,.36,2.21,2.31,1.75,1-.24,2-.56,3-.85,4.37-1.23,6.43-.56,9.24,3,.82,1,1.66,2,2.49,3.07.68.84,1.35.83,2,0s1.61-2,2.39-3C39.46,57.43,41.57,56.73,46,58,47.31,58.37,48.64,58.71,50.38,59.18Z"/><path class="cls-1" d="M46.45,23.49a11.53,11.53,0,0,1-1.24,2Q34.94,36.35,24.6,47.12a2.45,2.45,0,0,1-3.53.36c-1-.93-1-2.4.22-3.64Q31.54,33.1,41.82,22.39c.84-.88,1.85-1.37,2.94-.78C45.43,22,45.85,22.8,46.45,23.49Z"/><path class="cls-1" d="M43.38,36.61a7.5,7.5,0,1,1-7.81,7.28A7.56,7.56,0,0,1,43.38,36.61Zm2.55,7.53a2.85,2.85,0,0,0-2.78-2.87,2.92,2.92,0,0,0-2.94,2.9A2.89,2.89,0,0,0,42.92,47,2.84,2.84,0,0,0,45.93,44.14Z"/><path class="cls-1" d="M30.63,25a7.48,7.48,0,1,1-7.39-7.51A7.46,7.46,0,0,1,30.63,25Zm-4.67,0a2.85,2.85,0,0,0-2.75-2.9A2.78,2.78,0,0,0,20.31,25a2.75,2.75,0,0,0,2.81,2.8A2.81,2.81,0,0,0,26,25.05Z"/></g></g></svg>