<svg xmlns="http://www.w3.org/2000/svg" viewBox="0 0 137.18 137.18"><defs><style>.cls-1{fill:#c5c5c5;}.cls-2{fill:#b1b1b1;}</style></defs><g id="Capa_2" data-name="Capa 2"><g id="Capa_1-2" data-name="Capa 1"><path class="cls-1" d="M68.59,137.18a68.59,68.59,0,1,1,68.59-68.59A68.67,68.67,0,0,1,68.59,137.18Zm0-130.38a61.79,61.79,0,1,0,61.79,61.79A61.86,61.86,0,0,0,68.59,6.8Z"/><path class="cls-2" d="M52.16,60.48a1.25,1.25,0,0,1-.12.08l0,0,0,0a1.16,1.16,0,0,0-.24.2.27.27,0,0,0-.07.08,1.37,1.37,0,0,0-.18.24l-.06.13a2.34,2.34,0,0,0-.09.24,1,1,0,0,0,0,.3.43.43,0,0,0,0,.11h0V78.86a1.61,1.61,0,0,0,.9,1.44l15.73,7.57.17.06.13,0a1.32,1.32,0,0,0,.39.06A1.34,1.34,0,0,0,69,88l.12,0a1.27,1.27,0,0,0,.18-.06L85,80.3a1.61,1.61,0,0,0,.9-1.44V62s0,0,0,0a2.34,2.34,0,0,0,0-.26c0-.05,0-.1,0-.15a1,1,0,0,0-.08-.18,1,1,0,0,0-.09-.21l-.1-.14a1.63,1.63,0,0,0-.17-.2s-.08-.06-.12-.1a1.5,1.5,0,0,0-.13-.11l-.11,0,0,0L69.28,52.93a1.59,1.59,0,0,0-1.38,0Zm28.48,1.45-2.8,1.35-9.25,4.44-4.19-2,12.06-5.79ZM54.45,64.46,67,70.51V83.9l-12.54-6ZM70.18,83.9V70.51l9-4.33,3.55-1.71V77.86Zm2.6-25.75L60.72,63.94l-4.19-2,12.06-5.79Z"/><path class="cls-2" d="M63.52,71.7l-4.65-2.23a1.59,1.59,0,0,0-1.38,2.87l4.65,2.23a1.52,1.52,0,0,0,.69.16,1.58,1.58,0,0,0,1.43-.9A1.6,1.6,0,0,0,63.52,71.7Z"/><path class="cls-2" d="M105.41,58.44,95.38,52l0,0L69.46,35.18a1.59,1.59,0,0,0-1.73,0L41.84,51.93l-.05,0-10,6.48a1.59,1.59,0,0,0,.87,2.93,1.57,1.57,0,0,0,.86-.25l7.62-4.93V92.27H35.6a1.59,1.59,0,0,0,0,3.18h66.91a1.59,1.59,0,1,0,0-3.18H96.07V56.19l7.61,4.93a1.59,1.59,0,0,0,1.73-2.68ZM92.88,92.27H44.29V54.13l24.3-15.71L92.88,54.13Z"/></g></g></svg>