<svg xmlns="http://www.w3.org/2000/svg" viewBox="0 0 137.18 137.18"><defs><style>.cls-1{fill:#c5c5c5;}.cls-2{fill:#b1b1b1;}</style></defs><g id="Capa_2" data-name="Capa 2"><g id="Capa_1-2" data-name="Capa 1"><path class="cls-1" d="M68.59,137.18a68.59,68.59,0,1,1,68.59-68.59A68.67,68.67,0,0,1,68.59,137.18Zm0-130.38a61.79,61.79,0,1,0,61.79,61.79A61.86,61.86,0,0,0,68.59,6.8Z"/><path class="cls-2" d="M52.75,56.34H46.59a1.33,1.33,0,0,0,0,2.65h6.16a1.33,1.33,0,1,0,0-2.65Z"/><path class="cls-2" d="M99.81,80.78A14.77,14.77,0,0,0,92.48,76l-.71-5.12A8.3,8.3,0,0,0,97,72.72a1.33,1.33,0,0,0,1.32-1.33v-14A1.33,1.33,0,0,0,97,56.05a8.35,8.35,0,0,0-6.79,3.52l-.46-3.36a1.3,1.3,0,0,0-.41-.78c-.22-.22-5.62-5.22-11.32-4.07a1.33,1.33,0,0,0,.52,2.6c3.67-.74,7.51,2.15,8.65,3.1l2.56,18.42c-.44,0-.87-.06-1.31-.06A14.79,14.79,0,0,0,73.72,88.87H64.78c.06-11.83,7.51-14.81,7.84-14.93a1.37,1.37,0,0,0,.71-.63,5.74,5.74,0,0,0-2.77-10.77H66.3A4.09,4.09,0,0,0,67,60.2V43.83a1.34,1.34,0,0,0-1.33-1.33H42.24a1.33,1.33,0,0,0-1.32,1.33V63a1.32,1.32,0,0,0,.91,1.25,5.73,5.73,0,0,0,1,8.93l-5.59,9.62,0,0h0a1.32,1.32,0,0,0,2.29,1.33l0,0a12.12,12.12,0,0,1,22.58,5.42c0,.24,0,.48,0,.72a1.35,1.35,0,0,0,.18.62h0a1.13,1.13,0,0,0,.24.3h0a1.32,1.32,0,0,0,.88.36H75a1.33,1.33,0,0,0,1.33-1.33,12.12,12.12,0,0,1,21.46-7.72,1.32,1.32,0,1,0,2-1.69ZM95.66,58.86v11a5.68,5.68,0,0,1,0-11ZM56,45.15v5.4l-1.51-.93a1.31,1.31,0,0,0-.69-.19,1.35,1.35,0,0,0-.77.24l-1,.7V45.15Zm-12.39,0h5.79v7.77a1.34,1.34,0,0,0,.71,1.18,1.37,1.37,0,0,0,.61.15,1.35,1.35,0,0,0,.77-.24l2.36-1.67,2.79,1.71a1.31,1.31,0,0,0,2-1.13V45.15h5.79V60.2a1.45,1.45,0,0,1-1.45,1.44H43.56Zm2.32,20H70.56a3.09,3.09,0,1,1,0,6.18H45.88a3.09,3.09,0,1,1,0-6.18ZM62.83,82.83a14.73,14.73,0,0,0-19-6L45.4,74H67.81A17.41,17.41,0,0,0,62.83,82.83Z"/><path class="cls-2" d="M50,80.83a9.37,9.37,0,1,0,9.37,9.36A9.37,9.37,0,0,0,50,80.83Zm0,16.08a6.72,6.72,0,1,1,6.72-6.72A6.73,6.73,0,0,1,50,96.91Z"/><path class="cls-2" d="M50,88.1a2.09,2.09,0,1,0,2.09,2.09A2.1,2.1,0,0,0,50,88.1Z"/><path class="cls-2" d="M88.43,80.83a9.37,9.37,0,1,0,9.36,9.36A9.37,9.37,0,0,0,88.43,80.83Zm0,16.08a6.72,6.72,0,1,1,6.71-6.72A6.72,6.72,0,0,1,88.43,96.91Z"/><path class="cls-2" d="M88.43,88.1a2.09,2.09,0,1,0,2.09,2.09A2.1,2.1,0,0,0,88.43,88.1Z"/></g></g></svg>