<svg xmlns="http://www.w3.org/2000/svg" viewBox="0 0 20.62 26"><defs><style>.cls-1{fill:#706f6f;}</style></defs><g id="Capa_2" data-name="Capa 2"><g id="Capa_1-2" data-name="Capa 1"><path class="cls-1" d="M15.29,5.11h2.15a1.89,1.89,0,0,1,2,1.92c.38,4.73.75,9.47,1.14,14.21A4.25,4.25,0,0,1,16.34,26q-6,0-12.06,0A4.26,4.26,0,0,1,0,21.19c.4-4.69.76-9.4,1.12-14.1a1.91,1.91,0,0,1,2.1-2H5.32c0,1.11,0,2.23,0,3.35A.71.71,0,0,0,6,9.26a.72.72,0,0,0,.77-.7,2.36,2.36,0,0,0,0-.46l0-3,0,0h7l0,0c0,1.1,0,2.2,0,3.3,0,.56.33.91.78.87s.72-.38.72-.87c0-1.1,0-2.19,0-3.29Zm-6,11.15-.13-.05L8.12,15.15c-.48-.45-.87-.5-1.22-.16s-.28.79.13,1.22l1.43,1.45c.64.64,1,.65,1.6,0l3.06-3.08a6.7,6.7,0,0,0,.64-.67.71.71,0,0,0,0-1,.69.69,0,0,0-1-.06,5.36,5.36,0,0,0-.43.4Z"/><path class="cls-1" d="M5.33,5.11a5,5,0,1,1,10,0H13.78l0,0a3.56,3.56,0,0,0-3.46-3.6,3.56,3.56,0,0,0-3.52,3.6l0,0H5.33Z"/></g></g></svg>