<svg xmlns="http://www.w3.org/2000/svg" viewBox="0 0 26 23.04"><defs><style>.cls-1{fill:#706f6f;}</style></defs><g id="Capa_2" data-name="Capa 2"><g id="Capa_1-2" data-name="Capa 1"><path class="cls-1" d="M15.49,14.16H2.91A2.71,2.71,0,0,1,.44,13,2.65,2.65,0,0,1,2.82,8.88c4,0,8,0,12,0h.85c-.27-.31-.4-.49-.56-.65C14,7.1,12.84,6,11.72,4.84a2.87,2.87,0,0,1-.48-3.59A2.76,2.76,0,0,1,15.6.9c2,2,4,4,5.93,5.92l4.06,4.06c.54.54.55.73,0,1.25q-5,5-9.94,9.94a2.75,2.75,0,0,1-4.37-.22,2.8,2.8,0,0,1,.36-3.6C12.79,17.09,14,16,15.1,14.82c.16-.16.31-.33.46-.5Z"/></g></g></svg>