<svg xmlns="http://www.w3.org/2000/svg" viewBox="0 0 324.55 118.06"><defs><style>.cls-1{fill:#462680;}</style></defs><g id="Capa_2" data-name="Capa 2"><g id="Capa_1-2" data-name="Capa 1"><path class="cls-1" d="M53.62,63.14l-14.17,0c-3.33,0-4.19-3.8-1.47-6.54L65.26,29.26a5.75,5.75,0,0,0,1.49-2.47l3.49-12.25-46.59.4a5.92,5.92,0,0,0-5.26,4.23L15.51,29.74c-.63,2.31.69,4.16,3,4.15l19.61-.14L4.66,67.55A5.61,5.61,0,0,0,3.23,70L0,81.82l48.34-.1a5.85,5.85,0,0,0,5.24-4.1l3-10.38C57.19,65,55.88,63.13,53.62,63.14Z"/><path class="cls-1" d="M124.76,28.64l-12.64.09-1.49,5c-2.29-4-6.76-6.47-13.85-6.42C83,27.44,68.07,39.77,63.55,55.53s3.3,27.61,16.92,27.58a26.15,26.15,0,0,0,17.43-6.4l-1.46,4.91,12.46,0a4.72,4.72,0,0,0,4.21-3.25l13.94-46.42A2.35,2.35,0,0,0,124.76,28.64Zm-20.53,26.7c-2.35,7.93-9,12.89-16.28,12.91s-11-4.89-8.71-12.79,9-13,16.27-13S106.58,47.4,104.23,55.34Z"/><path class="cls-1" d="M172.23,26.79a27.24,27.24,0,0,0-18,6.68l1.55-5-12.71.09a4.9,4.9,0,0,0-4.31,3.34l-20.4,67.34a2.3,2.3,0,0,0,2.26,3.21h9.21a4.76,4.76,0,0,0,4.23-3.21L139,83.28c.75-2.43,3.83-4,5.6-2.86C147,82.07,150.38,83,154.76,83c13.86,0,29.16-12.19,34.18-28S186.3,26.69,172.23,26.79ZM172.92,55c-2.5,8-9.37,13-16.69,13s-11.08-4.93-8.63-12.88,9.31-13,16.68-13.08S175.42,47,172.92,55Z"/><path class="cls-1" d="M222.73,67.81c-7.41,0-11.15-5-8.56-13s9.63-13.12,17.08-13.16c5.85,0,9.41,3,9.42,8.23l2.44-2.35,2.65,2.2c1.23,1,2.43,2.06,3.59,3.08.61.54,1.22,1.08,1.84,1.61q1.86,1.6,3.7,3.23c.43-1,.81-2,1.16-3,5.35-16-2.27-28.45-16.52-28.35A28.14,28.14,0,0,0,221.23,33l1.64-5.08L210,28a5,5,0,0,0-4.41,3.37L183.94,99.17a2.29,2.29,0,0,0,2.24,3.23h9.34a4.89,4.89,0,0,0,4.32-3.23l5.18-16c.79-2.44,3.94-4.06,5.71-2.88,2.47,1.66,5.86,2.58,10.29,2.57,9.38,0,19.47-5.48,26.73-13.85l-7.94-14.25C237.16,62.76,230.14,67.78,222.73,67.81Z"/><path class="cls-1" d="M281.39,49.55c-2.79,1.81-5.58,3.62-8.33,5.5-4.93,3.39-9.72,7-14.43,10.67-.22.17-.46.31-.74.5l-5.09-5.14c-1.67-1.68-3.34-3.37-5-5s-3.3-3.39-5-5l-.12.11c4.79,10.27,9.59,20.53,14.46,31,19.62-21.58,41.69-39.86,67.44-53.49a.6.6,0,0,0-.36,0c-2.1.74-4.21,1.44-6.3,2.23A183,183,0,0,0,294.61,41.7C290.11,44.16,285.69,46.76,281.39,49.55Z"/><path class="cls-1" d="M308.25,42.67c-1.95,1.29-3.9,2.62-5.83,4a48.56,48.56,0,0,1,1.63,18.93c-2.44,27.48-28.36,49.61-57.67,45.28a50.92,50.92,0,0,1-31.31-16.65,9,9,0,0,1-4,5.33,63.87,63.87,0,0,0,8.1,7.33c.7.44,1.42.86,2.1,1.32a56.56,56.56,0,0,0,25.08,9.43,59,59,0,0,0,34.46-6.34c.8-.53,1.58-1.08,2.4-1.56C295.08,102.82,303,92.52,307.82,80c3.91-10.25,4.06-21,1.89-31.77A47.42,47.42,0,0,0,308.25,42.67Z"/><path class="cls-1" d="M215.78,86.45l-.24,3.3a48,48,0,0,0,33.86,18.42c24.53,2.2,49-15.8,51.64-42.69a47.52,47.52,0,0,0-1.29-16.89L297.81,50a41.86,41.86,0,0,1,.9,13.76,43.58,43.58,0,0,1-6.26,19.78,44.85,44.85,0,0,1-51.11,20.7C230.18,101,221.5,95,215.78,86.45Z"/><path class="cls-1" d="M287.61,30.33c.75.87,1.48,1.79,2.18,2.74A54.58,54.58,0,0,1,293,38l.16-.09,1.86-1a47.42,47.42,0,0,0-35.9-24,49.36,49.36,0,0,0-21.83,2.54,30,30,0,0,1,3.79,1.35A43.71,43.71,0,0,1,249,15.37a76,76,0,0,1,7.84.07c3.83.62,7.85.67,11.43,2A45.84,45.84,0,0,1,287.61,30.33Z"/><rect class="cls-1" x="292.53" y="60.21" width="1.99" height="5.97" transform="translate(209.44 351.44) rotate(-85.89)"/><rect class="cls-1" x="252.78" y="21.16" width="5.97" height="1.99" transform="translate(215.32 275.67) rotate(-85.89)"/><rect class="cls-1" x="247.24" y="98.21" width="5.97" height="1.99" transform="translate(133.33 341.67) rotate(-85.89)"/><path class="cls-1" d="M240.37,22.65l-7-3.51.13-.17-4.36-2.67A22.08,22.08,0,0,1,233,13.88a52.11,52.11,0,0,1,27-3.84,51,51,0,0,1,37.65,25.49q3.07-1.59,6.06-3c-.85-1.53-1.76-3-2.71-4.47h0a56.74,56.74,0,0,0-8.31-9.6h0c-8.42-7.93-18.24-12.44-29-14.69l-.09,0a54.81,54.81,0,0,0-12.21-.89v.06a58.16,58.16,0,0,0-27.19,7.92l-1.61-4,0-.11L219.63,0l-.14,0c-2.09,8.67-4.17,17.33-6.28,26.08l27.15-3.33Z"/><path class="cls-1" d="M233.57,18.94h0s0,0,0,0l.08.05Z"/><polygon class="cls-1" points="292.51 0 288.72 4.73 290.82 6.42 287.59 10.44 293.5 15.19 296.73 11.16 298.83 12.85 302.63 8.12 292.51 0"/><path class="cls-1" d="M8.18,99.9v1H.56V87H1.61V99.9Z"/><path class="cls-1" d="M13,95.92a5.23,5.23,0,1,1,5.24,5.19A5.16,5.16,0,0,1,13,95.92Zm9.44,0a4.21,4.21,0,1,0-4.2,4.24A4.17,4.17,0,0,0,22.41,95.92Z"/><path class="cls-1" d="M39.62,90.94v9.48c0,3-2.21,4.67-5,4.67-2.32,0-4-.93-4.69-2.39l.87-.49c.52,1.05,1.63,1.93,3.82,1.93,2.49,0,4-1.46,4-3.72V98.58a4.69,4.69,0,0,1-4.28,2.53,5.2,5.2,0,0,1,0-10.39,4.71,4.71,0,0,1,4.28,2.53V90.94Zm-1,5a4.22,4.22,0,1,0-4.22,4.24A4.19,4.19,0,0,0,38.62,95.92Z"/><path class="cls-1" d="M46.62,89.55,47.72,87h1.21L47.6,89.55Zm0,11.34h1v-10h-1Z"/><path class="cls-1" d="M61.41,98.29c0,1.63-1.44,2.82-3.56,2.82a3.75,3.75,0,0,1-3.79-2.21l.86-.49a2.85,2.85,0,0,0,2.93,1.75c1.39,0,2.56-.62,2.56-1.87,0-2.71-6-1.16-6-4.74,0-1.57,1.36-2.83,3.39-2.83a3.52,3.52,0,0,1,3.38,2l-.84.48a2.6,2.6,0,0,0-2.54-1.51c-1.3,0-2.39.68-2.39,1.87C55.38,96.22,61.41,94.64,61.41,98.29Z"/><path class="cls-1" d="M69.53,91.92v6.47c0,1.75.93,1.79,3,1.61v.89c-2.61.4-4-.24-4-2.5V91.92H66.32v-1h2.19V88.46l1-.3v2.78h3v1Z"/><path class="cls-1" d="M78.56,87.74a.8.8,0,1,1,.8.79A.8.8,0,0,1,78.56,87.74Zm.3,3.2h1v10h-1Z"/><path class="cls-1" d="M86.22,95.92a5.1,5.1,0,0,1,5.23-5.2,4.65,4.65,0,0,1,4.34,2.55l-.81.48a3.78,3.78,0,0,0-3.53-2.07,4.24,4.24,0,0,0,0,8.48A4,4,0,0,0,95,98.09l.83.49a4.86,4.86,0,0,1-4.42,2.53A5.1,5.1,0,0,1,86.22,95.92Z"/><path class="cls-1" d="M111.71,90.94v10h-1V98.64a4.78,4.78,0,0,1-4.28,2.47,5.2,5.2,0,0,1,0-10.39,4.8,4.8,0,0,1,4.28,2.47V90.94Zm-1,5a4.21,4.21,0,1,0-4.2,4.24A4.17,4.17,0,0,0,110.7,95.92Z"/></g></g></svg>