<?xml version="1.0" encoding="utf-8"?>
<!-- Generator: Adobe Illustrator 24.0.0, SVG Export Plug-In . SVG Version: 6.00 Build 0)  -->
<svg version="1.1" id="Capa_1" xmlns="http://www.w3.org/2000/svg" xmlns:xlink="http://www.w3.org/1999/xlink" x="0px" y="0px"
	 viewBox="0 0 127.4 127.7" style="enable-background:new 0 0 127.4 127.7;" xml:space="preserve">
<g id="technician">
	<path d="M125.2,55.3h-10.5V42.6h10.5c0.8,0,1.5-0.4,1.9-1.1c0.4-0.7,0.4-1.5,0-2.1c-5.3-9.2-17-12.3-26.1-7c0,0-0.1,0.1-0.1,0.1
		l5.3-8.9c0.5-0.8,0.4-1.9-0.3-2.6l-12-12c-0.7-0.7-1.8-0.8-2.6-0.3l-11.7,7.1c-0.3,0.2-0.7,0.2-1,0.1c0,0-0.1,0-0.1-0.1
		c-0.3-0.1-0.6-0.4-0.7-0.7L74.3,1.6C74,0.7,73.2,0,72.2,0h-17c-1,0-1.8,0.7-2.1,1.6l-3.3,13.3c-0.1,0.3-0.3,0.6-0.7,0.7
		c-0.1,0-0.1,0-0.1,0.1c-0.3,0.1-0.7,0.1-1-0.1L36.2,8.6c-0.8-0.5-1.9-0.4-2.6,0.3l-12,12c-0.7,0.7-0.8,1.8-0.3,2.6l5.3,8.9
		c-9.1-5.4-20.9-2.3-26.2,6.8c0,0,0,0.1-0.1,0.1c-0.4,0.7-0.4,1.5,0,2.1c0.4,0.7,1.1,1.1,1.9,1.1h10.5v12.8H2.1
		c-0.8,0-1.5,0.4-1.9,1.1c-0.4,0.7-0.4,1.5,0,2.1c4.7,8.1,14.6,11.7,23.3,8.3c-0.2,1.1-0.3,2.2-0.4,3.3c0,0.2,0,0.3,0.1,0.5
		l4.3,17.1c2.1,6.3,5.8,11.9,10.6,16.5v16.9c0,3.5,2.9,6.4,6.4,6.4h38.3c3.5,0,6.4-2.9,6.4-6.4v-16.2c5.9-5,10.3-11.6,12.5-19
		c0-0.1,0.1-0.2,0.1-0.3l3.1-18.5c1.8,0.6,3.7,0.9,5.6,0.9c6.8,0,13.2-3.7,16.6-9.6c0.4-0.7,0.4-1.5,0-2.1
		C126.7,55.7,126,55.3,125.2,55.3z M25.7,22.8l9.7-9.7l10.4,6.2c1.5,0.9,3.3,1,4.9,0.3c0,0,0.1,0,0.1,0c1.6-0.6,2.8-2,3.2-3.6
		l2.9-11.7h13.7L73.4,16c0.4,1.6,1.6,3,3.2,3.6c0,0,0.1,0,0.1,0c0.7,0.3,1.4,0.4,2.2,0.4c1,0,1.9-0.3,2.7-0.7L92,13.1l9.7,9.7
		l-5.8,9.6c-0.8-0.3-1.6-0.5-2.4-0.5h-4.3c-1.6,0-3.1,0.6-4.3,1.7c-1.2-1.1-2.7-1.7-4.3-1.7h-0.2c-10.6-9.3-26.7-8.3-36,2.2
		c-1.7,1.9-3,4-4.1,6.3H34c-0.5-0.9-1-1.9-1.7-2.7c0.5-1.5,0.4-3.2-0.4-4.6L25.7,22.8z M95.6,38.3v21.3c0,1.2-1,2.1-2.1,2.1h-4.3
		c-1.2,0-2.1-1-2.1-2.1V38.3c0-1.2,1-2.1,2.1-2.1h4.3C94.7,36.2,95.6,37.1,95.6,38.3z M82.8,38.3v21.3c0,1.2-1,2.1-2.1,2.1h-4.3
		c-1.2,0-2.1-1-2.1-2.1V38.3c0-1.2,1-2.1,2.1-2.1h4.3C81.9,36.2,82.8,37.1,82.8,38.3z M67.9,31.9h-4.3c-1.6,0-3.1,0.6-4.3,1.7
		c-1.2-1.1-2.7-1.7-4.3-1.7h-0.8c6.2-3,13.5-2.8,19.6,0.5c-0.6,0.3-1.2,0.7-1.7,1.1C71,32.5,69.5,31.9,67.9,31.9z M70.1,38.3v15.3
		c-0.7-0.2-1.4-0.4-2.1-0.4h-6.4V38.3c0-1.2,1-2.1,2.1-2.1h4.3C69.1,36.2,70.1,37.1,70.1,38.3z M57.3,38.3v14.9h-8.5V38.3
		c0-1.2,1-2.1,2.1-2.1h4.3C56.3,36.2,57.3,37.1,57.3,38.3z M16.9,63.9c-3.9,0-7.6-1.5-10.4-4.3h8.3c1.2,0,2.1-1,2.1-2.1v-17
		c0-1.2-1-2.1-2.1-2.1H6.4c2.8-2.7,6.5-4.3,10.4-4.3c6.1,0,11.5,3.7,13.8,9.3c0.3,0.8,1.1,1.3,2,1.3h11.9v8.5H32.6
		c-0.9,0-1.6,0.5-2,1.3c-0.4,0.9-0.8,1.7-1.3,2.6c-1.2,1-2.2,2.1-3.1,3.4C23.6,62.7,20.3,63.8,16.9,63.9z M97.6,84.9
		c-2.1,6.9-6.3,13.1-11.9,17.6c-0.5,0.4-0.7,1-0.7,1.6v17.2c0,1.2-1,2.1-2.1,2.1H44.5c-1.2,0-2.1-1-2.1-2.1v-17.8
		c0-0.6-0.2-1.1-0.6-1.5c-2.4-2.3-8.1-8.4-10.1-15.2L27.5,70c0.1-6.2,4.6-11.5,10.8-12.5h29.6c1.1,0,2.1,0.8,2.1,2
		c0,0.1,0,0.1,0,0.2c0,5.9-4.8,10.6-10.6,10.6H44.5v4.3h6.8l0.7,0.4c4.4,2.7,8.2,5,9.6,10.7c0.8,3.2,0.8,6.5,0,9.6l4.1,1
		c0.9-3.8,0.9-7.8,0-11.6c-1-4.1-3.4-7.6-6.7-10.1h0.4c6.1,0,11.6-3.7,13.8-9.4c1,0.6,2.1,0.9,3.2,0.9h4.3c1.6,0,3.1-0.6,4.3-1.7
		c1.2,1.1,2.7,1.7,4.3,1.7h4.3c2.9,0,5.4-2,6.2-4.8c0.6,0.8,1.1,1.6,1.6,2.4L97.6,84.9z M110.5,63.9c-1.7,0-3.4-0.3-5-0.9
		c0-0.3-0.1-0.5-0.2-0.8c-1.3-2.6-3.1-5-5.4-6.9V38.6c5.7-5.9,15.1-6,21-0.3c0,0,0,0,0.1,0.1h-8.3c-1.2,0-2.1,1-2.1,2.1v17
		c0,1.2,1,2.1,2.1,2.1h8.3C118.1,62.3,114.4,63.8,110.5,63.9z"/>
</g>
</svg>
