<svg xmlns="http://www.w3.org/2000/svg" viewBox="0 0 20.47 27"><defs><style>.cls-1{fill:none;stroke:#707070;stroke-miterlimit:10;}</style></defs><g id="Capa_2" data-name="Capa 2"><g id="Capa_1-2" data-name="Capa 1"><path class="cls-1" d="M10.25.5a9.81,9.81,0,0,1,9.67,8.79,13.93,13.93,0,0,1-2.05,8.17,35,35,0,0,1-7,8.73c-.46.44-.87.42-1.41-.12-.93-.92-1.86-1.85-2.73-2.84a28,28,0,0,1-5-7.61A12.27,12.27,0,0,1,.6,9a9.6,9.6,0,0,1,4.9-7.2A9.23,9.23,0,0,1,10.25.5ZM9.94,15.62a5.4,5.4,0,1,0,.61-10.78A5.46,5.46,0,0,0,4.84,9.79,5.39,5.39,0,0,0,9.94,15.62Z"/></g></g></svg>