<svg xmlns="http://www.w3.org/2000/svg" viewBox="0 0 64.16 56.26"><defs><style>.cls-1{fill:#707070;}</style></defs><g id="Capa_2" data-name="Capa 2"><g id="Capa_1-2" data-name="Capa 1"><path class="cls-1" d="M32.16,4.89A19.21,19.21,0,0,1,63.9,16.31a19.78,19.78,0,0,1-5.78,17.61q-9.3,9.51-18.63,19c-4.31,4.37-10.11,4.53-14.44.21-6.76-6.72-13.57-13.41-20-20.46C-.09,27-1.29,20.05,1.38,12.78S9.47,1.22,17.15.18a18,18,0,0,1,14.05,4Zm28,14.71c0-.57,0-1.15,0-1.71a11.64,11.64,0,0,0-.25-1.55c-1.35-5.86-4.81-10-10.58-11.69A14.49,14.49,0,0,0,34.18,8.47C32.59,10,31.73,10,30,8.33A15.1,15.1,0,0,0,9,8.05C2.87,14,2.26,24,7.94,30,14.39,36.8,21,43.44,27.59,50.16c2.85,2.91,6.26,2.9,9.15,0q9.51-9.7,19-19.41A15.33,15.33,0,0,0,60.15,19.6Z"/><path class="cls-1" d="M56.3,20.42c.13,2.61-1.28,5.35-3.5,7.72-2.08,2.22-4.23,4.38-6.38,6.53-1.12,1.11-2.24,1.17-3.13.26s-.75-1.83.26-2.9c2-2.15,4.1-4.25,6.15-6.37,4.35-4.48,3.49-10.27-2-13.3-1.39-.77-1.79-1.72-1.22-2.88s1.51-1.23,3-.61C53.61,10.62,56.33,14.93,56.3,20.42Z"/><path class="cls-1" d="M41.82,11.34c0,1.25-2.6,3.46-3.82,3.23a1.89,1.89,0,0,1-1.26-3,7.82,7.82,0,0,1,2.38-1.94A1.9,1.9,0,0,1,41.82,11.34Z"/></g></g></svg>