<svg xmlns="http://www.w3.org/2000/svg" viewBox="0 0 28.03 26.09"><defs><style>.cls-1{fill:#707070;}</style></defs><g id="Capa_2" data-name="Capa 2"><g id="Capa_1-2" data-name="Capa 1"><path class="cls-1" d="M16.61,26.09V19H11.45V26c-.2,0-.34.06-.48.07-1.35,0-2.71,0-4.06,0a2.88,2.88,0,0,1-3-3c0-2.13,0-4.25,0-6.38a1.66,1.66,0,0,1,.44-1c3-3,5.93-6,8.9-8.95a.93.93,0,0,1,1.56,0c3,3,5.95,6,8.9,9a1.66,1.66,0,0,1,.44,1c0,2.1,0,4.21,0,6.31a2.87,2.87,0,0,1-3,3.08C19.65,26.1,18.17,26.09,16.61,26.09Z"/><path class="cls-1" d="M20.09,4.29c0-.66,0-1.14,0-1.61a1.61,1.61,0,0,1,1.63-1.63A1.59,1.59,0,0,1,23.3,2.72c0,1.44,0,2.88,0,4.32a1.43,1.43,0,0,0,.35.86c1.27,1.3,2.58,2.55,3.84,3.86a1.6,1.6,0,0,1-.73,2.75,1.71,1.71,0,0,1-1.68-.6c-1.6-1.62-3.21-3.22-4.82-4.83L15,3.81c-.81-.8-1.22-.8-2,0L3.18,13.66c-.13.13-.26.27-.4.39A1.61,1.61,0,0,1,.43,14a1.63,1.63,0,0,1,.11-2.31L8.81,3.46c.83-.82,1.62-1.68,2.52-2.43A4.11,4.11,0,0,1,17,1.29c.9.87,1.77,1.77,2.65,2.65C19.77,4,19.87,4.09,20.09,4.29Z"/></g></g></svg>