<svg xmlns="http://www.w3.org/2000/svg" viewBox="0 0 232.33 84.52"><defs><style>.cls-1{fill:#462680;}</style></defs><g id="Capa_2" data-name="Capa 2"><g id="Capa_1-2" data-name="Capa 1"><path class="cls-1" d="M38.39,45.2l-10.15,0c-2.39,0-3-2.72-1-4.68L46.72,21a4.37,4.37,0,0,0,1.07-1.77l2.49-8.77-33.35.28a4.24,4.24,0,0,0-3.76,3L11.1,21.29a2.17,2.17,0,0,0,2.12,3l14-.1L3.34,48.35a4,4,0,0,0-1,1.73L0,58.57l34.6-.07a4.21,4.21,0,0,0,3.76-2.93l2.12-7.43A2.13,2.13,0,0,0,38.39,45.2Z"/><path class="cls-1" d="M89.31,20.5l-9,.06-1.07,3.6c-1.64-2.89-4.83-4.63-9.91-4.59-9.9.07-20.55,8.9-23.78,20.18S47.85,59.52,57.6,59.5a18.77,18.77,0,0,0,12.48-4.58l-1,3.51,8.92,0a3.37,3.37,0,0,0,3-2.32L91,22.86A1.69,1.69,0,0,0,89.31,20.5ZM74.61,39.62A12.4,12.4,0,0,1,63,48.86c-5.16,0-7.88-3.5-6.23-9.16a12.38,12.38,0,0,1,11.64-9.3C73.58,30.37,76.3,33.93,74.61,39.62Z"/><path class="cls-1" d="M123.29,19.18A19.56,19.56,0,0,0,110.42,24l1.11-3.62-9.1.07a3.5,3.5,0,0,0-3.08,2.39L84.74,71a1.65,1.65,0,0,0,1.62,2.3H93A3.39,3.39,0,0,0,96,71l3.5-11.38c.53-1.74,2.74-2.89,4-2a12.82,12.82,0,0,0,7.3,1.83c9.92,0,20.87-8.72,24.47-20.06S133.37,19.11,123.29,19.18Zm.5,20.22a12.79,12.79,0,0,1-12,9.3c-5.23,0-7.93-3.53-6.18-9.22a12.77,12.77,0,0,1,11.94-9.36C122.88,30.09,125.58,33.67,123.79,39.4Z"/><path class="cls-1" d="M159.44,48.54c-5.3,0-8-3.55-6.12-9.28a13.17,13.17,0,0,1,12.23-9.42c4.18,0,6.73,2.18,6.74,5.9L174,34.06l1.9,1.57c.89.72,1.74,1.48,2.57,2.21.44.38.87.77,1.32,1.15l2.65,2.31c.3-.71.58-1.44.83-2.17,3.83-11.5-1.62-20.37-11.83-20.3a20.12,20.12,0,0,0-13.1,4.81L159.54,20l-9.21.07a3.61,3.61,0,0,0-3.16,2.41L131.68,71a1.64,1.64,0,0,0,1.6,2.32H140a3.5,3.5,0,0,0,3.1-2.32l3.7-11.46c.57-1.75,2.82-2.91,4.09-2.06a12.94,12.94,0,0,0,7.37,1.84c6.71,0,13.94-3.92,19.14-9.92l-5.69-10.2A13.17,13.17,0,0,1,159.44,48.54Z"/><path class="cls-1" d="M201.44,35.47c-2,1.3-4,2.59-6,3.94-3.53,2.43-7,5-10.34,7.64-.15.12-.33.22-.53.35L181,43.72l-3.59-3.61c-1.2-1.19-2.36-2.42-3.59-3.58l-.09.07c3.44,7.35,6.87,14.7,10.35,22.17,14-15.46,29.85-28.54,48.28-38.3a.41.41,0,0,0-.25,0c-1.51.53-3,1-4.51,1.59a132.16,132.16,0,0,0-16.67,7.77C207.68,31.61,204.52,33.47,201.44,35.47Z"/><path class="cls-1" d="M220.67,30.54c-1.4.93-2.79,1.89-4.18,2.86A34.74,34.74,0,0,1,217.66,47c-1.75,19.68-20.3,35.52-41.29,32.42A36.51,36.51,0,0,1,154,67.45a6.38,6.38,0,0,1-2.85,3.81,45.5,45.5,0,0,0,5.8,5.25c.5.32,1,.62,1.51.95a40.58,40.58,0,0,0,18,6.75A42.35,42.35,0,0,0,201,79.67c.57-.38,1.12-.78,1.71-1.12,8.49-4.94,14.17-12.32,17.61-21.32,2.8-7.33,2.91-15,1.35-22.74A34.72,34.72,0,0,0,220.67,30.54Z"/><path class="cls-1" d="M154.47,61.89l-.17,2.36a34.35,34.35,0,0,0,24.24,13.18c17.56,1.58,35.1-11.31,37-30.56a34.08,34.08,0,0,0-.93-12.09l-1.39,1a30,30,0,0,1,.65,9.85,31.29,31.29,0,0,1-4.49,14.16,32.11,32.11,0,0,1-36.58,14.82C164.78,72.28,158.57,68,154.47,61.89Z"/><path class="cls-1" d="M205.89,21.71c.54.63,1.06,1.28,1.56,2,.84,1.17,1.61,2.35,2.31,3.56l.11-.06c.44-.25.89-.49,1.33-.72A33.89,33.89,0,0,0,185.5,9.27a35.26,35.26,0,0,0-15.63,1.81,21.44,21.44,0,0,1,2.72,1A31.62,31.62,0,0,1,178.21,11a55.48,55.48,0,0,1,5.62.05c2.74.45,5.62.48,8.18,1.41A32.94,32.94,0,0,1,205.89,21.71Z"/><rect class="cls-1" x="209.42" y="43.1" width="1.43" height="4.28" transform="translate(149.93 251.58) rotate(-85.89)"/><rect class="cls-1" x="180.96" y="15.15" width="4.28" height="1.43" transform="translate(154.14 197.35) rotate(-85.89)"/><rect class="cls-1" x="176.99" y="70.3" width="4.28" height="1.43" transform="translate(95.45 244.59) rotate(-85.89)"/><path class="cls-1" d="M172.07,16.21l-5-2.51.09-.12-3.12-1.91a16.65,16.65,0,0,1,2.75-1.74,37.46,37.46,0,0,1,19.36-2.75,36.51,36.51,0,0,1,27,18.26q2.2-1.15,4.34-2.17c-.61-1.1-1.26-2.16-1.94-3.2h0a39.88,39.88,0,0,0-5.94-6.87h0A41.89,41.89,0,0,0,188.81,2.69h-.06A39,39,0,0,0,180,2.06v0a41.86,41.86,0,0,0-19.47,5.67l-1.15-2.85,0-.08C158.67,3.2,158,1.6,157.23,0l-.1,0c-1.5,6.21-3,12.41-4.5,18.67l19.43-2.38Z"/><path class="cls-1" d="M167.21,13.56h0l.06,0Z"/><polygon class="cls-1" points="209.4 0 206.68 3.39 208.19 4.59 205.88 7.47 210.11 10.87 212.42 7.99 213.92 9.2 216.64 5.81 209.4 0"/><path class="cls-1" d="M7.43,64.54H4.25v9.4H3.47v-9.4H.29v-.72H7.43Z"/><path class="cls-1" d="M14.44,64.38a.58.58,0,0,1,1.15,0,.58.58,0,1,1-1.15,0Zm.21,2.33h.72v7.23h-.72Z"/><path class="cls-1" d="M30.2,70.35c0,.12,0,.23,0,.35H23.64a2.93,2.93,0,0,0,3.06,2.7,2.75,2.75,0,0,0,2.5-1.31l.64.37a3.57,3.57,0,0,1-3.15,1.63,3.78,3.78,0,1,1,3.51-3.74ZM23.64,70h5.81a2.82,2.82,0,0,0-2.82-2.75A2.91,2.91,0,0,0,23.64,70Z"/><path class="cls-1" d="M43.78,69.44v4.5H43v-4.5a2,2,0,0,0-2.12-2.2c-1.42,0-2.53.93-2.53,2.88v3.82h-.72V66.71h.72v1.37A2.71,2.71,0,0,1,41,66.55,2.67,2.67,0,0,1,43.78,69.44Z"/><path class="cls-1" d="M58.69,63.82V73.94H58V72.26a3.41,3.41,0,0,1-3.1,1.83,3.77,3.77,0,0,1,0-7.54A3.4,3.4,0,0,1,58,68.39V63.82ZM58,70.32A3.06,3.06,0,1,0,54.9,73.4,3,3,0,0,0,58,70.32Z"/><path class="cls-1" d="M73.78,66.71v7.23h-.73V72.3a3.47,3.47,0,0,1-3.11,1.79,3.77,3.77,0,0,1,0-7.54,3.49,3.49,0,0,1,3.11,1.79V66.71Zm-.73,3.61a3.06,3.06,0,1,0-3,3.08A3,3,0,0,0,73.05,70.32Z"/></g></g></svg>