<svg xmlns="http://www.w3.org/2000/svg" viewBox="0 0 25 26.09"><defs><style>.cls-1{fill:#707070;}</style></defs><g id="Capa_2" data-name="Capa 2"><g id="Capa_1-2" data-name="Capa 1"><path class="cls-1" d="M18.58,24c-.59-.07-1.34-.21-2.09-.24a1.66,1.66,0,0,0-1,.34c-.53.42-1,.94-1.49,1.39a2.2,2.2,0,0,1-3.06,0c-.48-.42-.94-.87-1.38-1.33a1.2,1.2,0,0,0-1.15-.4c-.63.1-1.26.19-1.9.24A2.23,2.23,0,0,1,3.9,22c-.09-.52-.19-1-.25-1.55a1.4,1.4,0,0,0-.82-1.18c-.53-.25-1-.53-1.54-.82a2.27,2.27,0,0,1-1-3.12c.25-.55.53-1.08.81-1.61a1.3,1.3,0,0,0,0-1.28q-.4-.76-.78-1.56a2.28,2.28,0,0,1,1-3.17c.49-.27,1-.56,1.49-.79a1.41,1.41,0,0,0,.87-1.21A15.54,15.54,0,0,1,3.93,4,2.22,2.22,0,0,1,6.43,2.1c.69,0,1.38.22,2.08.23a1.65,1.65,0,0,0,1-.33c.51-.39.93-.88,1.4-1.32a2.24,2.24,0,0,1,3.23,0c.44.41.88.83,1.29,1.26a1.31,1.31,0,0,0,1.21.4A20.71,20.71,0,0,1,18.7,2.1,2.16,2.16,0,0,1,21,3.85c.14.63.24,1.26.33,1.89a1.34,1.34,0,0,0,.77,1.09c.54.26,1.06.55,1.59.85a2.27,2.27,0,0,1,1,3.12c-.25.54-.53,1.08-.81,1.61a1.3,1.3,0,0,0,0,1.28c.27.51.54,1,.78,1.56a2.27,2.27,0,0,1-1,3.17c-.52.29-1.05.58-1.59.85a1.29,1.29,0,0,0-.74,1c-.1.67-.21,1.35-.36,2A2.23,2.23,0,0,1,18.58,24Zm.24-1.48c.4.06.69-.23.78-.77s.24-1.22.34-1.83A2.44,2.44,0,0,1,21.34,18c.49-.23,1-.5,1.45-.75.74-.4.85-.7.5-1.45-.22-.45-.42-.92-.66-1.36a2.66,2.66,0,0,1,0-2.71c.24-.44.44-.91.66-1.36.36-.77.26-1.07-.47-1.46-.5-.27-1-.54-1.5-.78A2.37,2.37,0,0,1,20,6.26L19.6,4.32a.77.77,0,0,0-.94-.72c-.71.09-1.42.17-2.13.27a2.35,2.35,0,0,1-2-.7c-.46-.45-.91-.9-1.38-1.34a.81.81,0,0,0-1.28,0c-.47.44-.92.89-1.38,1.34a2.31,2.31,0,0,1-2,.69L6.34,3.6a.76.76,0,0,0-.94.72L5,6.26A2.36,2.36,0,0,1,3.69,8.1c-.48.23-.93.48-1.4.73-.85.45-.94.71-.54,1.56.24.51.48,1,.73,1.52a2.43,2.43,0,0,1,0,2.24c-.24.51-.48,1-.73,1.52-.41.88-.33,1.14.51,1.58.44.23.88.48,1.34.69a2.47,2.47,0,0,1,1.45,2c.1.61.23,1.22.34,1.83a.77.77,0,0,0,1,.74l2.19-.27a2.2,2.2,0,0,1,1.85.65c.48.46.94.93,1.43,1.37a.81.81,0,0,0,1.32,0c.47-.43.92-.89,1.38-1.33a2.3,2.3,0,0,1,2-.68Z"/><path class="cls-1" d="M18.3,8a4.23,4.23,0,0,1-.45.73q-4.8,4.83-9.63,9.63c-.43.43-.9.46-1.23.12s-.25-.77.16-1.19c3.21-3.21,6.41-6.42,9.64-9.61a1.39,1.39,0,0,1,1-.26C17.94,7.46,18.1,7.8,18.3,8Z"/><path class="cls-1" d="M15.5,19.81a2.75,2.75,0,1,1,2.75-2.73A2.77,2.77,0,0,1,15.5,19.81Zm1.25-2.73a1.2,1.2,0,0,0-1.23-1.25,1.24,1.24,0,0,0-1.27,1.23,1.3,1.3,0,0,0,1.22,1.23A1.22,1.22,0,0,0,16.75,17.08Z"/><path class="cls-1" d="M9.48,11.78a2.76,2.76,0,1,1,2.76-2.72A2.77,2.77,0,0,1,9.48,11.78Zm0-1.52A1.24,1.24,0,0,0,10.75,9,1.28,1.28,0,0,0,9.49,7.79,1.23,1.23,0,0,0,8.25,9,1.2,1.2,0,0,0,9.47,10.26Z"/></g></g></svg>